<svg width="96" height="96" viewBox="0 0 96 96" fill="none" xmlns="http://www.w3.org/2000/svg">
  <path fill-rule="evenodd" clip-rule="evenodd"
    d="M24 16H72C76.4 16 80 19.6 80 24V72C80 76.4 76.4 80 72 80H24C19.6 80 16 76.4 16 72V24C16 19.6 19.6 16 24 16ZM28 72H68C70.2 72 72 70.2 72 68V28C72 25.8 70.2 24 68 24H28C25.8 24 24 25.8 24 28V68C24 70.2 25.8 72 28 72ZM31.0001 59.2843L42.3137 47.9707L31 36.6569L36.6569 31.0001L47.9706 42.3138L59.2844 31L64.9412 36.6569L53.6274 47.9707L64.9411 59.2844L59.2843 64.9412L47.9706 53.6275L36.657 64.9411L31.0001 59.2843Z"
    fill="currentColor" />
</svg>
  