<svg width="24" height="24" viewBox="0 0 24 24" fill="none" xmlns="http://www.w3.org/2000/svg">
  <path opacity="0.2"
    d="M20.5 3.5H3.5C2.67157 3.5 2 4.17157 2 5V20C2 20.8284 2.67157 21.5 3.5 21.5H20.5C21.3284 21.5 22 20.8284 22 20V5C22 4.17157 21.3284 3.5 20.5 3.5Z"
    fill="black" />
  <path
    d="M20.5 3H3.5C2.67157 3 2 3.67157 2 4.5V19.5C2 20.3284 2.67157 21 3.5 21H20.5C21.3284 21 22 20.3284 22 19.5V4.5C22 3.67157 21.3284 3 20.5 3Z"
    fill="#414141" />
  <path opacity="0.1"
    d="M3.5 3C2.669 3 2 3.669 2 4.5V5C2 4.169 2.669 3.5 3.5 3.5H20.5C21.331 3.5 22 4.169 22 5V4.5C22 3.669 21.331 3 20.5 3H3.5Z"
    fill="white" />
  <path opacity="0.2"
    d="M15.5 11.5H10.5C10.2239 11.5 10 11.7239 10 12V13C10 13.2761 10.2239 13.5 10.5 13.5H15.5C15.7761 13.5 16 13.2761 16 13V12C16 11.7239 15.7761 11.5 15.5 11.5Z"
    fill="black" />
  <path
    d="M15.5 11H10.5C10.2239 11 10 11.2239 10 11.5V12.5C10 12.7761 10.2239 13 10.5 13H15.5C15.7761 13 16 12.7761 16 12.5V11.5C16 11.2239 15.7761 11 15.5 11Z"
    fill="#5FB7FF" />
  <path opacity="0.2"
    d="M7.85879 8.45288L4.15036 11.9569C3.94563 12.1503 3.94563 12.4639 4.15036 12.6574L4.89248 13.3586C5.09721 13.552 5.42915 13.552 5.63388 13.3586L9.34231 9.85461C9.54704 9.66117 9.54704 9.34753 9.34231 9.15409L8.60019 8.45288C8.39546 8.25943 8.06352 8.25943 7.85879 8.45288Z"
    fill="black" />
  <path
    d="M7.86605 7.95166L4.15762 11.4556C3.95289 11.6491 3.95289 11.9627 4.15762 12.1562L4.89975 12.8574C5.10448 13.0508 5.43641 13.0508 5.64114 12.8574L9.34957 9.35339C9.5543 9.15995 9.5543 8.84631 9.34957 8.65287L8.60745 7.95166C8.40272 7.75821 8.07078 7.75821 7.86605 7.95166Z"
    fill="#006FD8" />
  <path opacity="0.2"
    d="M7.86605 10.5505L4.15762 7.04655C3.95289 6.85311 3.95289 6.53947 4.15762 6.34603L4.89975 5.64482C5.10448 5.45137 5.43641 5.45137 5.64114 5.64482L9.34957 9.14881C9.5543 9.34225 9.5543 9.65589 9.34957 9.84933L8.60745 10.5505C8.40272 10.744 8.07078 10.744 7.86605 10.5505Z"
    fill="black" />
  <path
    d="M7.85879 10.0491L4.15036 6.54509C3.94563 6.35164 3.94563 6.03801 4.15036 5.84456L4.89248 5.14335C5.09721 4.94991 5.42915 4.94991 5.63388 5.14335L9.34231 8.64734C9.54704 8.84079 9.54704 9.15442 9.34231 9.34787L8.60019 10.0491C8.39546 10.2425 8.06352 10.2425 7.85879 10.0491Z"
    fill="#5FB7FF" />
</svg>
  