<svg width="64" height="64" viewBox="0 0 64 64" fill="none" xmlns="http://www.w3.org/2000/svg">
  <path opacity="0.2"
    d="M50.2996 27.3639C48.9915 26.023 46.8578 25.9966 45.517 27.3047C44.8112 27.9933 44.0827 28.0358 42.6689 27.7299C40.9252 27.3526 39.8772 26.9301 39.5448 25.6252C39.0824 23.81 37.248 22.7214 35.4327 23.1838L33.7944 23.5998C31.9791 24.0622 30.8905 25.8965 31.3529 27.7118C31.5844 28.6205 30.9009 29.6503 29.9325 30.6982C28.6981 32.0341 28.3265 32.4421 26.9119 32.0443C25.1086 31.5371 23.2479 32.5799 22.7407 34.3832L22.2843 36.0107C21.7771 37.814 22.8199 39.6747 24.6232 40.1819C25.8612 40.5301 26.0957 41.4138 26.4732 42.7565C26.9809 44.5624 27.0352 45.3346 26.1544 46.1939C24.8135 47.502 24.7871 49.6356 26.0952 50.9765L26.6851 51.5811L27.2749 52.1858C28.583 53.5267 30.7166 53.5531 32.0575 52.245C32.9384 51.3857 33.709 51.4591 35.5018 52.0114C36.8347 52.422 37.7123 52.6782 38.0297 53.9245C38.4921 55.7398 40.3265 56.8283 42.1418 56.3659L43.7802 55.9499C45.5954 55.4875 46.684 53.6532 46.2215 51.8379C45.8588 50.4138 46.2759 50.0525 47.6419 48.8515C48.7135 47.9093 49.76 47.2515 50.6626 47.5054C52.4659 48.0126 54.3266 46.9698 54.8338 45.1665L55.2902 43.539C55.7974 41.7357 54.7546 39.875 52.9513 39.3678C51.655 39.0032 51.2586 37.945 50.9246 36.1926C50.6538 34.7715 50.7143 34.0444 51.4201 33.3558C52.761 32.0477 52.7874 29.9141 51.4793 28.5732L50.8894 27.9686L50.2996 27.3639Z"
    fill="black" />
  <path
    d="M50.7251 26.6476C49.417 25.3067 47.2834 25.2803 45.9425 26.5884C45.2367 27.277 44.5083 27.3195 43.0944 27.0136C41.3507 26.6363 40.3027 26.2138 39.9703 24.9089C39.5079 23.0936 37.6735 22.0051 35.8582 22.4675L34.2199 22.8834C32.4046 23.3459 31.3161 25.1802 31.7785 26.9955C32.0099 27.9041 31.3264 28.934 30.3581 29.9819C29.1236 31.3178 28.7521 31.7258 27.3374 31.328C25.5341 30.8208 23.6734 31.8636 23.1662 33.6669L22.7099 35.2944C22.2027 37.0977 23.2455 38.9584 25.0488 39.4656C26.2867 39.8138 26.5212 40.6975 26.8987 42.0402C27.4064 43.846 27.4608 44.6183 26.5799 45.4776C25.239 46.7857 25.2126 48.9193 26.5207 50.2602L27.1106 50.8648L27.7004 51.4695C29.0085 52.8104 31.1422 52.8368 32.4831 51.5287C33.3639 50.6694 34.1345 50.7428 35.9273 51.2951C37.2602 51.7057 38.1378 51.9619 38.4553 53.2082C38.9177 55.0234 40.752 56.112 42.5673 55.6496L44.2057 55.2336C46.021 54.7712 47.1095 52.9369 46.6471 51.1215C46.2843 49.6975 46.7014 49.3362 48.0675 48.1351C49.1391 47.193 50.1855 46.5352 51.0881 46.7891C52.8914 47.2963 54.7522 46.2535 55.2593 44.4502L55.7157 42.8227C56.2229 41.0194 55.1801 39.1587 53.3768 38.6515C52.0805 38.2869 51.6842 37.2287 51.3502 35.4762C51.0793 34.0552 51.1399 33.3281 51.8456 32.6395C53.1865 31.3314 53.2129 29.1978 51.9048 27.8569L51.315 27.2523L50.7251 26.6476Z"
    fill="#455A64" />
  <path opacity="0.2"
    d="M42.1917 34.0432C45.3573 35.9235 46.3993 40.0139 44.519 43.1795C42.6387 46.3451 38.5483 47.3871 35.3827 45.5068C32.2171 43.6265 31.1751 39.5361 33.0554 36.3705C34.9357 33.2049 39.0261 32.1629 42.1917 34.0432Z"
    fill="black" />
  <path
    d="M42.6174 33.3266C45.783 35.2069 46.8249 39.2974 44.9446 42.463C43.0644 45.6286 38.9739 46.6705 35.8083 44.7903C32.6427 42.91 31.6007 38.8195 33.481 35.6539C35.3613 32.4883 39.4518 31.4464 42.6174 33.3266Z"
    fill="white" />
  <path opacity="0.1"
    d="M49.9126 26.0325C48.6444 25.3441 47.0319 25.525 45.9424 26.5878C45.2366 27.2763 44.5085 27.3187 43.0946 27.0127C41.3509 26.6354 40.3033 26.2143 39.9709 24.9094C39.5085 23.0941 37.6735 22.0041 35.8582 22.4665L34.2196 22.8827C33.1664 23.151 32.3612 23.883 31.9582 24.8032C32.403 24.2298 33.0332 23.793 33.794 23.5992L35.4326 23.183C37.2479 22.7206 39.083 23.8106 39.5454 25.6258C39.8778 26.9307 40.9254 27.3519 42.669 27.7292C44.0829 28.0351 44.811 27.9928 45.5168 27.3043C46.8577 25.9962 48.9911 26.0231 50.2992 27.364L50.8903 27.9687L51.4792 28.5741C52.4676 29.5872 52.694 31.0526 52.1672 32.2729C53.1777 30.9589 53.0973 29.08 51.9048 27.8576L51.3159 27.2522L50.7248 26.6475C50.4795 26.3961 50.2052 26.1914 49.9126 26.0325ZM51.3028 33.4859C50.7151 34.1385 50.6718 34.8598 50.9258 36.1924C51.2598 37.9449 51.6545 39.0032 52.9507 39.3678C54.754 39.875 55.7983 41.7355 55.2911 43.5388L54.8339 45.166C54.7891 45.3253 54.7306 45.4776 54.6656 45.6245C54.9308 45.2861 55.1355 44.8903 55.2594 44.4495L55.7167 42.8223C56.2239 41.0191 55.1796 39.1585 53.3763 38.6513C52.08 38.2867 51.6853 37.2284 51.3513 35.4759C51.1843 34.5998 51.1443 33.9881 51.3028 33.4859ZM31.1596 29.0066C30.9315 29.328 30.6616 29.6545 30.3583 29.9827C29.1239 31.3186 28.752 31.7249 27.3374 31.327C25.6934 30.8646 24.0049 31.693 23.3346 33.2088C24.154 32.1629 25.5493 31.6603 26.9118 32.0435C28.3264 32.4413 28.6983 32.035 29.9327 30.6991C30.4645 30.1236 30.9039 29.5541 31.1596 29.0066ZM46.5801 49.8575C46.0914 50.4185 45.9818 50.8985 46.2213 51.8385C46.4154 52.6006 46.3336 53.3643 46.042 54.0302C46.6585 53.2355 46.9154 52.1765 46.6468 51.122C46.5095 50.5829 46.4847 50.1952 46.5801 49.8575ZM26.7418 45.2981C26.689 45.358 26.6417 45.4179 26.5799 45.4783C26.2521 45.798 26.0034 46.1657 25.833 46.5605C25.9309 46.4331 26.0358 46.3104 26.1543 46.1948C26.4548 45.9016 26.6399 45.6155 26.7418 45.2981Z"
    fill="white" />
  <path opacity="0.2"
    d="M21.1473 8.61774C19.9712 8.30259 18.77 8.99608 18.4549 10.1722C18.289 10.7913 17.896 11.0568 17.0044 11.3552C15.9047 11.7231 15.1787 11.835 14.5598 11.216C13.6988 10.3551 12.3124 10.3556 11.4514 11.2166L10.6739 11.9929C9.81288 12.8539 9.81346 14.2403 10.6744 15.1013C11.1054 15.5323 11.0653 16.3347 10.872 17.2418C10.6255 18.3981 10.5533 18.7495 9.63068 18.9967C8.45456 19.3118 7.76083 20.5123 8.07597 21.6884L8.36119 22.7494C8.67633 23.9256 9.87676 24.6193 11.0529 24.3041C11.8603 24.0878 12.2847 24.5038 12.9413 25.1289C13.8245 25.9695 14.1112 26.3831 13.9042 27.1557C13.5891 28.3318 14.2825 29.533 15.4587 29.8481L15.989 29.9902L16.5194 30.1323C17.6955 30.4475 18.8966 29.754 19.2118 28.5778C19.4188 27.8052 19.8739 27.5905 21.0591 27.304C21.9403 27.091 22.5158 26.9429 23.1069 27.534C23.9678 28.395 25.3543 28.3944 26.2153 27.5334L26.9928 26.7571C27.8538 25.8961 27.8532 24.5097 26.9922 23.6487C26.3168 22.9733 26.43 22.6329 26.7947 21.5082C27.0808 20.626 27.4473 19.9111 28.036 19.7533C29.2121 19.4382 29.9058 18.2378 29.5907 17.0616L29.3055 16.0006C28.9904 14.8245 27.7899 14.1308 26.6138 14.4459C25.7684 14.6724 25.1956 14.2126 24.4272 13.3441C23.8042 12.6399 23.5966 12.2134 23.7625 11.5944C24.0776 10.4182 23.3842 9.21709 22.208 8.90195L21.6777 8.75984L21.1473 8.61774Z"
    fill="black" />
  <path
    d="M21.1473 8.07599C19.9712 7.76085 18.77 8.45433 18.4549 9.63046C18.289 10.2495 17.896 10.5151 17.0044 10.8134C15.9047 11.1814 15.1787 11.2932 14.5598 10.6743C13.6988 9.81331 12.3124 9.81388 11.4514 10.6749L10.6739 11.4511C9.81288 12.3121 9.81346 13.6986 10.6744 14.5596C11.1054 14.9905 11.0653 15.793 10.872 16.7C10.6255 17.8564 10.5533 18.2077 9.63068 18.4549C8.45456 18.7701 7.76083 19.9705 8.07597 21.1466L8.36119 22.2077C8.67633 23.3838 9.87676 24.0775 11.0529 23.7624C11.8603 23.5461 12.2847 23.9621 12.9413 24.5871C13.8245 25.4278 14.1112 25.8413 13.9042 26.6139C13.5891 27.7901 14.2825 28.9912 15.4587 29.3063L15.989 29.4485L16.5194 29.5906C17.6955 29.9057 18.8966 29.2122 19.2118 28.0361C19.4188 27.2635 19.8739 27.0487 21.0591 26.7623C21.9403 26.5493 22.5158 26.4012 23.1069 26.9923C23.9678 27.8532 25.3543 27.8527 26.2153 26.9917L26.9928 26.2154C27.8538 25.3544 27.8532 23.9679 26.9922 23.1069C26.3168 22.4315 26.43 22.0911 26.7947 20.9665C27.0808 20.0843 27.4473 19.3693 28.036 19.2116C29.2121 18.8964 29.9058 17.696 29.5907 16.5199L29.3055 15.4589C28.9904 14.2827 27.7899 13.589 26.6138 13.9041C25.7684 14.1307 25.1956 13.6709 24.4272 12.8024C23.8042 12.0982 23.5966 11.6717 23.7625 11.0526C24.0776 9.87649 23.3842 8.67534 22.208 8.3602L21.6777 8.2181L21.1473 8.07599Z"
    fill="#455A64" />
  <path opacity="0.2"
    d="M18.8333 15.0415C21.2266 15.0415 23.1667 16.9816 23.1667 19.3748C23.1667 21.7681 21.2266 23.7082 18.8333 23.7082C16.4401 23.7082 14.5 21.7681 14.5 19.3748C14.5 16.9816 16.4401 15.0415 18.8333 15.0415Z"
    fill="black" />
  <path
    d="M18.8333 14.5C21.2266 14.5 23.1667 16.4401 23.1667 18.8333C23.1667 21.2266 21.2266 23.1667 18.8333 23.1667C16.4401 23.1667 14.5 21.2266 14.5 18.8333C14.5 16.4401 16.4401 14.5 18.8333 14.5Z"
    fill="white" />
  <path opacity="0.1"
    d="M20.489 8.00213C19.5518 8.03837 18.7106 8.6747 18.4546 9.63031C18.2887 10.2494 17.8958 10.5147 17.0041 10.8131C15.9044 11.181 15.1792 11.2934 14.5603 10.6745C13.6993 9.81351 12.312 9.81351 11.451 10.6745L10.6734 11.451C10.1739 11.9505 9.96683 12.6269 10.0471 13.2749C10.1053 12.8068 10.3125 12.3535 10.6734 11.9927L11.451 11.2162C12.312 10.3552 13.6993 10.3552 14.5603 11.2162C15.1792 11.8351 15.9044 11.7227 17.0041 11.3548C17.8958 11.0564 18.2887 10.791 18.4546 10.172C18.7697 8.99585 19.9709 8.30271 21.147 8.61786L21.6781 8.75962L22.2081 8.90244C23.0968 9.14056 23.7098 9.88437 23.8204 10.7411C23.949 9.67139 23.2803 8.64807 22.2081 8.36078L21.6781 8.21795L21.147 8.07619C20.9265 8.0171 20.7053 7.99377 20.489 8.00213ZM23.74 11.706C23.6282 12.2658 23.8434 12.6833 24.4277 13.3437C25.1961 14.2122 25.768 14.6726 26.6134 14.4461C27.7895 14.1309 28.9907 14.8241 29.3059 16.0002L29.5905 17.0613C29.6183 17.1652 29.6362 17.2697 29.6486 17.3734C29.6845 17.0963 29.6675 16.8071 29.5905 16.5196L29.3059 15.4585C28.9907 14.2824 27.7895 13.5893 26.6134 13.9044C25.768 14.1309 25.1961 13.6705 24.4277 12.802C24.0436 12.3678 23.8181 12.0393 23.74 11.706ZM10.9961 15.8891C10.9753 16.1444 10.9328 16.4165 10.8723 16.7005C10.6258 17.8569 10.5529 18.2074 9.63025 18.4546C8.55805 18.7419 7.88943 19.7653 8.01795 20.835C8.12873 19.9784 8.74163 19.2344 9.63025 18.9963C10.5529 18.7491 10.6258 18.3985 10.8723 17.2422C10.9784 16.7441 11.0349 16.2799 10.9961 15.8891ZM26.5351 22.423C26.4483 22.8987 26.5464 23.2033 26.9921 23.6491C27.3536 24.0106 27.5614 24.4645 27.6195 24.9335C27.7003 24.2847 27.4923 23.6076 26.9921 23.1074C26.7365 22.8518 26.5939 22.6433 26.5351 22.423ZM13.935 26.4601C13.9254 26.511 13.9189 26.5603 13.9043 26.6145C13.8273 26.902 13.8103 27.1901 13.8462 27.4672C13.8586 27.3635 13.8765 27.2601 13.9043 27.1562C13.975 26.8926 13.9834 26.6713 13.935 26.4601Z"
    fill="white" />
</svg>
  