<svg width="96" height="96" viewBox="0 0 96 96" fill="none" xmlns="http://www.w3.org/2000/svg">
  <style>path { fill: var(--fg); }</style>
  <path
    d="M47 16C45.3431 16 44 17.3431 44 19V37C44 38.6569 45.3431 40 47 40H49C50.6569 40 52 38.6569 52 37V19C52 17.3431 50.6569 16 49 16H47Z"
    fill="currentColor" />
  <path
    d="M24 48C19.5817 48 16 51.5817 16 56V72C16 76.4183 19.5817 80 24 80H72C76.4183 80 80 76.4183 80 72V56C80 51.5817 76.4183 48 72 48H24Z"
    fill="currentColor" />
  <path
    d="M71.5 18.5981C72.3284 17.1632 74.1632 16.6716 75.5981 17.5L77.3301 18.5C78.765 19.3284 79.2566 21.1632 78.4282 22.5981L69.4282 38.1865C68.5998 39.6214 66.765 40.113 65.3301 39.2846L63.5981 38.2846C62.1632 37.4562 61.6716 35.6214 62.5 34.1865L71.5 18.5981Z"
    fill="currentColor" />
  <path
    d="M18.5981 18.5C17.1632 19.3284 16.6716 21.1632 17.5 22.5981L26.5 38.1865C27.3284 39.6214 29.1632 40.113 30.5981 39.2846L32.3301 38.2846C33.765 37.4562 34.2566 35.6214 33.4282 34.1865L24.4282 18.5981C23.5998 17.1632 21.765 16.6716 20.3301 17.5L18.5981 18.5Z"
    fill="currentColor" />
</svg>
  