<svg width="24" height="24" viewBox="0 0 24 24" fill="none" xmlns="http://www.w3.org/2000/svg">
  <path opacity="0.2"
    d="M5 2.5C4.446 2.5 4 2.946 4 3.5V21.5C4 22.054 4.446 22.5 5 22.5H19C19.554 22.5 20 22.054 20 21.5V8.5L14.5 8L14 2.5H5Z"
    fill="black" />
  <path
    d="M5 2C4.446 2 4 2.446 4 3V21C4 21.554 4.446 22 5 22H19C19.554 22 20 21.554 20 21V8L14.5 7.5L14 2H5Z"
    fill="#C7C7C7" />
  <path d="M5 2C4.446 2 4 2.446 4 3V6C3.446 6 4.5 6 4 6C4.554 6 18 6 18 6L14 2H5Z" fill="#5A6367" />
  <path opacity="0.1" d="M5 2C4.446 2 4 2.446 4 3V3.5C4 2.946 4.446 2.5 5 2.5H14V2H5Z" fill="white" />
  <path opacity="0.2" d="M14 2.5V7.5C14 8.0525 14.448 8.5 15 8.5H20L14 2.5Z" fill="black" />
  <path d="M14 2V7C14 7.5525 14.448 8 15 8H20L14 2Z" fill="#F4F4F4" />
  <g clip-path="url(#clip0_1893_155)">
    <path opacity="0.2"
      d="M17.4289 16.1201H6.57113C6.2557 16.1201 6 16.3873 6 16.717V16.9632C6 17.2929 6.2557 17.5601 6.57113 17.5601H17.4289C17.7443 17.5601 18 17.2929 18 16.9632V16.717C18 16.3873 17.7443 16.1201 17.4289 16.1201Z"
      fill="black" />
    <path
      d="M17.4289 15.76H6.57113C6.2557 15.76 6 16.0272 6 16.3569V16.6031C6 16.9328 6.2557 17.2 6.57113 17.2H17.4289C17.7443 17.2 18 16.9328 18 16.6031V16.3569C18 16.0272 17.7443 15.76 17.4289 15.76Z"
      fill="white" />
    <path opacity="0.1" fill-rule="evenodd" clip-rule="evenodd"
      d="M16.5 16.8399C16.5 18.0323 15.492 18.9999 14.25 18.9999C13.008 18.9999 12 18.0323 12 16.8399C12 15.6476 13.008 14.6799 14.25 14.6799C15.492 14.6799 16.5 15.6476 16.5 16.8399Z"
      fill="black" />
    <path fill-rule="evenodd" clip-rule="evenodd"
      d="M16.5 16.4801C16.5 17.6724 15.492 18.6401 14.25 18.6401C13.008 18.6401 12 17.6724 12 16.4801C12 15.2877 13.008 14.3201 14.25 14.3201C15.492 14.3201 16.5 15.2877 16.5 16.4801Z"
      fill="#5294E2" />
    <path opacity="0.2"
      d="M6.75 11.8001C7.16421 11.8001 7.5 11.4778 7.5 11.0801C7.5 10.6825 7.16421 10.3601 6.75 10.3601C6.33579 10.3601 6 10.6825 6 11.0801C6 11.4778 6.33579 11.8001 6.75 11.8001Z"
      fill="black" />
    <path
      d="M6.75 11.44C7.16421 11.44 7.5 11.1176 7.5 10.72C7.5 10.3224 7.16421 10 6.75 10C6.33579 10 6 10.3224 6 10.72C6 11.1176 6.33579 11.44 6.75 11.44Z"
      fill="white" />
    <path opacity="0.1"
      d="M10.2641 12.8799H9.23587C9.1056 12.8799 9 12.9906 9 13.1272V14.0726C9 14.2091 9.1056 14.3199 9.23587 14.3199H10.2641C10.3944 14.3199 10.5 14.2091 10.5 14.0726V13.1272C10.5 12.9906 10.3944 12.8799 10.2641 12.8799Z"
      fill="black" />
    <path
      d="M10.2641 12.52H9.23587C9.1056 12.52 9 12.6307 9 12.7673V13.7127C9 13.8493 9.1056 13.96 9.23587 13.96H10.2641C10.3944 13.96 10.5 13.8493 10.5 13.7127V12.7673C10.5 12.6307 10.3944 12.52 10.2641 12.52Z"
      fill="#5294E2" />
    <path opacity="0.1"
      d="M6.75 14.3199C7.16421 14.3199 7.5 13.9975 7.5 13.5999C7.5 13.2022 7.16421 12.8799 6.75 12.8799C6.33579 12.8799 6 13.2022 6 13.5999C6 13.9975 6.33579 14.3199 6.75 14.3199Z"
      fill="black" />
    <path
      d="M6.75 13.96C7.16421 13.96 7.5 13.6377 7.5 13.24C7.5 12.8424 7.16421 12.52 6.75 12.52C6.33579 12.52 6 12.8424 6 13.24C6 13.6377 6.33579 13.96 6.75 13.96Z"
      fill="#5294E2" />
    <path opacity="0.2"
      d="M10.2641 10.3601H9.23587C9.1056 10.3601 9 10.4708 9 10.6074V11.5528C9 11.6894 9.1056 11.8001 9.23587 11.8001H10.2641C10.3944 11.8001 10.5 11.6894 10.5 11.5528V10.6074C10.5 10.4708 10.3944 10.3601 10.2641 10.3601Z"
      fill="black" />
    <path
      d="M10.2641 10H9.23587C9.1056 10 9 10.1107 9 10.2473V11.1927C9 11.3293 9.1056 11.44 9.23587 11.44H10.2641C10.3944 11.44 10.5 11.3293 10.5 11.1927V10.2473C10.5 10.1107 10.3944 10 10.2641 10Z"
      fill="white" />
  </g>
  <defs>
    <clipPath id="clip0_1893_155">
      <rect width="12" height="9" fill="white" transform="translate(6 10)" />
    </clipPath>
  </defs>
</svg>
  