<svg width="24" height="24" viewBox="0 0 24 24" fill="none" xmlns="http://www.w3.org/2000/svg">
  <path opacity="0.2"
    d="M5 2.5C4.446 2.5 4 2.946 4 3.5V21.5C4 22.054 4.446 22.5 5 22.5H19C19.554 22.5 20 22.054 20 21.5V8.5L14.5 8L14 2.5H5Z"
    fill="black" />
  <path
    d="M5 2C4.446 2 4 2.446 4 3V21C4 21.554 4.446 22 5 22H19C19.554 22 20 21.554 20 21V8L14.5 7.5L14 2H5Z"
    fill="#E4E4E4" />
  <path opacity="0.2" d="M5 2C4.446 2 4 2.446 4 3V3.5C4 2.946 4.446 2.5 5 2.5H14V2H5Z" fill="white" />
  <path opacity="0.2" d="M14 2.5V7.5C14 8.0525 14.448 8.5 15 8.5H20L14 2.5Z" fill="black" />
  <path d="M14 2V7C14 7.5525 14.448 8 15 8H20L14 2Z" fill="#FAFAFA" />
  <g clip-path="url(#clip0_1892_28)">
    <path
      d="M12 11.72C10.636 11.72 9.32793 12.2889 8.36346 13.3016C7.39898 14.3143 6.85715 15.6878 6.85715 17.12C6.85732 17.2702 6.86346 17.4203 6.87556 17.57H7.73605C7.72164 17.4204 7.71438 17.2703 7.71429 17.12C7.71429 15.928 8.16467 14.7848 8.96658 13.9411C9.7685 13.0974 10.8564 12.6223 11.9916 12.62C11.9944 12.62 11.9972 12.62 12 12.62C13.1367 12.62 14.2268 13.0941 15.0305 13.938C15.8343 14.7819 16.2857 15.9265 16.2857 17.12C16.2856 17.2703 16.2784 17.4204 16.2639 17.57H17.1245C17.1366 17.4203 17.1427 17.2702 17.1429 17.12C17.1429 15.6878 16.6011 14.3143 15.6365 13.3016C14.6721 12.2889 13.364 11.72 12 11.72Z"
      fill="#363636" />
    <path opacity="0.1"
      d="M6.85714 11.8999C6.62981 11.8999 6.4118 11.9947 6.25105 12.1635C6.09031 12.3323 6 12.5612 6 12.7999C6 13.0386 6.09031 13.2675 6.25105 13.4363C6.4118 13.6051 6.62981 13.6999 6.85714 13.6999C7.00749 13.6998 7.15515 13.6581 7.28533 13.5791C7.4155 13.5002 7.5236 13.3866 7.59877 13.2499H16.4013C16.4764 13.3866 16.5845 13.5002 16.7146 13.5791C16.8448 13.6581 16.9925 13.6998 17.1429 13.6999C17.3702 13.6999 17.5882 13.6051 17.7489 13.4363C17.9097 13.2675 18 13.0386 18 12.7999C18 12.5612 17.9097 12.3323 17.7489 12.1635C17.5882 11.9947 17.3702 11.8999 17.1429 11.8999C16.9925 11.9 16.8448 11.9417 16.7146 12.0207C16.5845 12.0996 16.4764 12.2132 16.4013 12.3499H7.59877C7.5236 12.2132 7.4155 12.0996 7.28533 12.0207C7.15515 11.9417 7.00749 11.9 6.85714 11.8999Z"
      fill="black" />
    <path d="M17.1429 11.8999H6.85715V12.7999H17.1429V11.8999Z" fill="#FF4B4B" />
    <path opacity="0.1"
      d="M11.1429 11.45C10.9054 11.45 10.7143 11.6507 10.7143 11.9V13.7C10.7143 13.9493 10.9054 14.15 11.1429 14.15H12.8571C13.0946 14.15 13.2857 13.9493 13.2857 13.7V11.9C13.2857 11.6507 13.0946 11.45 12.8571 11.45H11.1429ZM6.42857 16.85C6.19114 16.85 6 17.0507 6 17.3V19.1C6 19.3493 6.19114 19.55 6.42857 19.55H8.14286C8.38029 19.55 8.57143 19.3493 8.57143 19.1V17.3C8.57143 17.0507 8.38029 16.85 8.14286 16.85H6.42857ZM15.8571 16.85C15.6197 16.85 15.4286 17.0507 15.4286 17.3V19.1C15.4286 19.3493 15.6197 19.55 15.8571 19.55H17.5714C17.8089 19.55 18 19.3493 18 19.1V17.3C18 17.0507 17.8089 16.85 17.5714 16.85H15.8571Z"
      fill="black" />
    <path
      d="M8.14286 16.3999H6.42857C6.19188 16.3999 6 16.6014 6 16.8499V18.6499C6 18.8984 6.19188 19.0999 6.42857 19.0999H8.14286C8.37955 19.0999 8.57143 18.8984 8.57143 18.6499V16.8499C8.57143 16.6014 8.37955 16.3999 8.14286 16.3999Z"
      fill="#3974E1" />
    <path
      d="M17.5714 16.3999H15.8571C15.6205 16.3999 15.4286 16.6014 15.4286 16.8499V18.6499C15.4286 18.8984 15.6205 19.0999 15.8571 19.0999H17.5714C17.8081 19.0999 18 18.8984 18 18.6499V16.8499C18 16.6014 17.8081 16.3999 17.5714 16.3999Z"
      fill="#3974E1" />
    <path
      d="M17.1428 13.25C17.6162 13.25 18 12.847 18 12.35C18 11.8529 17.6162 11.45 17.1428 11.45C16.6694 11.45 16.2857 11.8529 16.2857 12.35C16.2857 12.847 16.6694 13.25 17.1428 13.25Z"
      fill="#FF4B4B" />
    <path
      d="M12.8572 11H11.1429C10.9062 11 10.7143 11.2015 10.7143 11.45V13.25C10.7143 13.4985 10.9062 13.7 11.1429 13.7H12.8572C13.0938 13.7 13.2857 13.4985 13.2857 13.25V11.45C13.2857 11.2015 13.0938 11 12.8572 11Z"
      fill="#3974E1" />
    <path
      d="M6.85714 13.25C7.33053 13.25 7.71429 12.847 7.71429 12.35C7.71429 11.8529 7.33053 11.45 6.85714 11.45C6.38376 11.45 6 11.8529 6 12.35C6 12.847 6.38376 13.25 6.85714 13.25Z"
      fill="#FF4B4B" />
  </g>
  <defs>
    <clipPath id="clip0_1892_28">
      <rect width="12" height="9" fill="white" transform="translate(6 11)" />
    </clipPath>
  </defs>
</svg>
  