<svg width="24" height="24" viewBox="0 0 24 24" fill="none" xmlns="http://www.w3.org/2000/svg">
  <path opacity="0.2"
    d="M5 2.5C4.446 2.5 4 2.946 4 3.5V21.5C4 22.054 4.446 22.5 5 22.5H19C19.554 22.5 20 22.054 20 21.5V8.5L14 2.5H5Z"
    fill="black" />
  <path
    d="M5 2C4.446 2 4 2.446 4 3V21C4 21.554 4.446 22 5 22H19C19.554 22 20 21.554 20 21V8L15 7L14 2H5Z"
    fill="#52A4FF" />
  <path opacity="0.2" d="M20 8.5L14 2.5V7.5C14 8.054 14.446 8.5 15 8.5H20Z" fill="black" />
  <path d="M20 8L14 2V7C14 7.554 14.446 8 15 8H20Z" fill="#85BFFF" />
  <path opacity="0.2" d="M5 2C4.446 2 4 2.446 4 3V3.5C4 2.946 4.446 2.5 5 2.5H14V2H5Z" fill="white" />
  <g opacity="0.2">
    <path
      d="M12.0389 8.94574L12.0676 8.9488L12.096 8.95318L12.1243 8.95865L12.1518 8.96521L12.1792 8.97308L12.2061 8.98183L12.2323 8.9919L12.2581 9.00283L12.2835 9.01487L12.3084 9.02799L12.3327 9.04199L12.3563 9.05708L12.3795 9.07283L12.4021 9.08968L12.4237 9.1074L12.4449 9.12599L12.4655 9.14546L12.4852 9.1658L12.5042 9.1868L12.5224 9.20846L12.5274 9.21502L12.5316 9.21983L12.5364 9.22574L12.5408 9.23208L12.5425 9.23449L12.5565 9.25418L12.5725 9.27824L12.5873 9.30274L12.6016 9.3279L12.6147 9.35371L12.6265 9.3793L16.4982 16.0853L16.5021 16.0921L16.5054 16.0991L16.5087 16.1061L16.5115 16.1131L16.5139 16.1203L16.5163 16.1275L16.5181 16.1347L16.5198 16.142L16.5211 16.1492L16.5222 16.1566L16.5229 16.1638L16.5235 16.1713V16.1785V16.1857L16.5231 16.1931L16.5224 16.2004L16.5216 16.2076L16.5205 16.2148L16.5189 16.2218L16.5172 16.2288L16.5152 16.2358L16.5128 16.2428L16.5104 16.2496L16.5076 16.2564L16.5045 16.2629L16.5012 16.2693L16.4975 16.2758L16.4938 16.282L16.4896 16.2881L16.4853 16.294L16.4809 16.2999L16.4761 16.3056L16.471 16.3111L16.4656 16.3163L16.4601 16.3213L16.4544 16.3264L16.4483 16.331L16.4422 16.3356L16.4356 16.3397L16.429 16.3436L15.302 16.9944L15.2953 16.9981L15.2883 17.0016L15.2813 17.0047L15.2743 17.0076L15.267 17.0102L15.2598 17.0124L15.2526 17.0143L15.2454 17.0159L15.2382 17.0174L15.2309 17.0183L15.2235 17.0191L15.2163 17.0196L15.2088 17.0198L15.2016 17.0196L15.1942 17.0194L15.187 17.0187L15.1798 17.0178L15.1728 17.0165L15.1655 17.015L15.1585 17.0132L15.1515 17.0113L15.1445 17.0091L15.1378 17.0065L15.1312 17.0036L15.1244 17.0006L15.1181 16.9973L15.1115 16.9938L15.1054 16.9898L15.0993 16.9859L15.0933 16.9815L15.0874 16.9769L15.0818 16.9721L15.0763 16.9671L15.071 16.9618L15.066 16.9564L15.0612 16.9505L15.0564 16.9446L15.052 16.9382L15.0476 16.9319L15.0437 16.9251L11.9781 11.6156L8.91257 16.9251L8.90863 16.9319L8.90426 16.9382L8.89988 16.9446L8.89507 16.9505L8.89026 16.9564L8.88522 16.9618L8.87997 16.9671L8.87451 16.9721L8.86882 16.9769L8.86291 16.9815L8.85701 16.9859L8.85088 16.9898L8.84476 16.9938L8.83819 16.9973L8.83185 17.0006L8.82507 17.0036L8.81851 17.0065L8.81172 17.0091L8.80472 17.0113L8.79772 17.0132L8.79072 17.015L8.78351 17.0165L8.77651 17.0178L8.76929 17.0187L8.76207 17.0194L8.75463 17.0196L8.74741 17.0198L8.73997 17.0196L8.73276 17.0191L8.72532 17.0183L8.7181 17.0174L8.71088 17.0159L8.70366 17.0143L8.69644 17.0124L8.68922 17.0102L8.68201 17.0076L8.67501 17.0047L8.66801 17.0016L8.66101 16.9981L8.65422 16.9944L7.52722 16.3436L7.52066 16.3397L7.5141 16.3356L7.50797 16.331L7.50185 16.3264L7.49616 16.3213L7.49069 16.3163L7.48522 16.3111L7.48019 16.3056L7.47538 16.2999L7.47101 16.294L7.46663 16.2881L7.46247 16.282L7.45876 16.2758L7.45504 16.2693L7.45176 16.2629L7.44869 16.2564L7.44585 16.2496L7.44344 16.2428L7.44104 16.2358L7.43907 16.2288L7.43732 16.2218L7.43579 16.2148L7.43469 16.2076L7.43382 16.2004L7.43316 16.1931L7.43272 16.1857V16.1785V16.1713L7.43338 16.1638L7.43404 16.1566L7.43513 16.1492L7.43644 16.142L7.43819 16.1347L7.43994 16.1275L7.44235 16.1203L7.44476 16.1131L7.4476 16.1061L7.45088 16.0991L7.45416 16.0921L7.4581 16.0853L11.3586 9.32943L11.3593 9.3279L11.3733 9.30274L11.384 9.28524L11.4072 9.24521L11.4111 9.23843L11.4155 9.23208L11.4199 9.22574L11.4247 9.21983L11.4295 9.21415L11.4345 9.20846L11.44 9.20321L11.4455 9.19818L11.4507 9.1938L11.4566 9.1868L11.4757 9.1658L11.4953 9.14546L11.5157 9.12599L11.5369 9.1074L11.5588 9.08968L11.5813 9.07283L11.6043 9.05708L11.6281 9.04199L11.6524 9.02799L11.6771 9.01487L11.7025 9.00283L11.7283 8.9919L11.7548 8.98183L11.7817 8.97308L11.8088 8.96521L11.8366 8.95865L11.8646 8.95318L11.893 8.9488L11.9219 8.94574L11.951 8.94377L11.9803 8.94312L12.0098 8.94377L12.0389 8.94574Z"
      fill="black" />
    <path
      d="M12.0608 9.64569L12.0895 9.64875L12.1179 9.65313L12.1461 9.6586L12.1737 9.66516L12.201 9.67304L12.2279 9.68179L12.2542 9.69185L12.28 9.70279L12.3054 9.71482L12.3303 9.72794L12.3546 9.74194L12.3782 9.75704L12.4014 9.77279L12.4239 9.78963L12.4456 9.80735L12.4668 9.82594L12.4874 9.84541L12.5071 9.86575L12.5261 9.88675L12.5443 9.90841L12.5493 9.91497L12.5534 9.91979L12.5583 9.92569L12.5626 9.93203L12.5644 9.93444L12.5784 9.95413L12.5944 9.97819L12.6092 10.0027L12.6234 10.0278L12.6366 10.0537L12.6484 10.0793L16.52 16.7853L16.524 16.792L16.5273 16.799L16.5305 16.806L16.5334 16.813L16.5358 16.8203L16.5382 16.8275L16.5399 16.8347L16.5417 16.8419L16.543 16.8491L16.5441 16.8566L16.5448 16.8638L16.5454 16.8712V16.8784V16.8857L16.545 16.8931L16.5443 16.9003L16.5434 16.9075L16.5424 16.9148L16.5408 16.9218L16.5391 16.9288L16.5371 16.9358L16.5347 16.9428L16.5323 16.9495L16.5294 16.9563L16.5264 16.9629L16.5231 16.9692L16.5194 16.9758L16.5157 16.9819L16.5115 16.988L16.5071 16.9939L16.5028 16.9998L16.4979 17.0055L16.4929 17.011L16.4874 17.0163L16.482 17.0213L16.4763 17.0263L16.4702 17.0309L16.464 17.0355L16.4575 17.0397L16.4509 17.0436L15.3239 17.6944L15.3171 17.6981L15.3101 17.7016L15.3031 17.7047L15.2961 17.7075L15.2889 17.7101L15.2817 17.7123L15.2745 17.7143L15.2673 17.7158L15.26 17.7173L15.2528 17.7182L15.2454 17.7191L15.2382 17.7195L15.2307 17.7198L15.2235 17.7195L15.2161 17.7193L15.2089 17.7187L15.2016 17.7178L15.1946 17.7165L15.1874 17.7149L15.1804 17.7132L15.1734 17.7112L15.1664 17.709L15.1596 17.7064L15.1531 17.7036L15.1463 17.7005L15.1399 17.6972L15.1334 17.6937L15.1273 17.6898L15.1211 17.6858L15.1152 17.6815L15.1093 17.6769L15.1036 17.6721L15.0982 17.667L15.0929 17.6618L15.0879 17.6563L15.0831 17.6504L15.0783 17.6445L15.0739 17.6382L15.0695 17.6318L15.0656 17.625L12 12.3155L8.93445 17.625L8.93051 17.6318L8.92614 17.6382L8.92176 17.6445L8.91695 17.6504L8.91214 17.6563L8.90711 17.6618L8.90186 17.667L8.89639 17.6721L8.8907 17.6769L8.88479 17.6815L8.87889 17.6858L8.87276 17.6898L8.86664 17.6937L8.86007 17.6972L8.85373 17.7005L8.84695 17.7036L8.84039 17.7064L8.83361 17.709L8.82661 17.7112L8.81961 17.7132L8.81261 17.7149L8.80539 17.7165L8.79839 17.7178L8.79117 17.7187L8.78395 17.7193L8.77651 17.7195L8.76929 17.7198L8.76186 17.7195L8.75464 17.7191L8.7472 17.7182L8.73998 17.7173L8.73276 17.7158L8.72554 17.7143L8.71832 17.7123L8.71111 17.7101L8.70389 17.7075L8.69689 17.7047L8.68989 17.7016L8.68289 17.6981L8.67611 17.6944L7.54911 17.0436L7.54254 17.0397L7.53598 17.0355L7.52986 17.0309L7.52373 17.0263L7.51804 17.0213L7.51257 17.0163L7.50711 17.011L7.50207 17.0055L7.49726 16.9998L7.49289 16.9939L7.48851 16.988L7.48436 16.9819L7.48064 16.9758L7.47692 16.9692L7.47364 16.9629L7.47057 16.9563L7.46773 16.9495L7.46532 16.9428L7.46292 16.9358L7.46095 16.9288L7.4592 16.9218L7.45767 16.9148L7.45657 16.9075L7.4557 16.9003L7.45504 16.8931L7.45461 16.8857V16.8784V16.8712L7.45526 16.8638L7.45592 16.8566L7.45701 16.8491L7.45832 16.8419L7.46007 16.8347L7.46182 16.8275L7.46423 16.8203L7.46664 16.813L7.46948 16.806L7.47276 16.799L7.47604 16.792L7.47998 16.7853L11.3805 10.0294L11.3812 10.0278L11.3952 10.0027L11.4059 9.98519L11.4291 9.94516L11.433 9.93838L11.4374 9.93203L11.4418 9.92569L11.4466 9.91979L11.4514 9.9141L11.4564 9.90841L11.4619 9.90316L11.4674 9.89813L11.4726 9.89375L11.4785 9.88675L11.4975 9.86575L11.5172 9.84541L11.5376 9.82594L11.5588 9.80735L11.5807 9.78963L11.6032 9.77279L11.6262 9.75704L11.65 9.74194L11.6743 9.72794L11.699 9.71482L11.7244 9.70279L11.7502 9.69185L11.7767 9.68179L11.8036 9.67304L11.8307 9.66516L11.8585 9.6586L11.8865 9.65313L11.9149 9.64875L11.9438 9.64569L11.9729 9.64372L12.0022 9.64307L12.0317 9.64372L12.0608 9.64569Z"
      fill="black" />
    <path
      d="M12.0672 10.4206L12.0958 10.4237L12.1243 10.428L12.1525 10.4335L12.18 10.4401L12.2074 10.4479L12.2343 10.4569L12.2605 10.4667L12.2863 10.4777L12.3117 10.4899L12.3367 10.5028L12.3609 10.5168L12.3846 10.5319L12.4078 10.5479L12.4303 10.5647L12.4519 10.5825L12.4732 10.6011L12.4937 10.6203L12.5134 10.6407L12.5324 10.6617L12.5506 10.6835L12.5556 10.6899L12.5598 10.6947L12.5646 10.7008L12.569 10.7069L12.5707 10.7096L12.5847 10.7292L12.6007 10.7531L12.6156 10.7776L12.6298 10.803L12.6429 10.8288L12.6547 10.8542L16.5264 17.5602L16.5303 17.5672L16.5336 17.5739L16.5369 17.5809L16.5397 17.5882L16.5421 17.5952L16.5445 17.6024L16.5463 17.6096L16.548 17.6168L16.5493 17.624L16.5504 17.6315L16.5511 17.6387L16.5518 17.6461V17.6533V17.6608L16.5513 17.668L16.5507 17.6752L16.5498 17.6824L16.5487 17.6897L16.5472 17.6967L16.5454 17.7039L16.5434 17.7109L16.541 17.7177L16.5386 17.7244L16.5358 17.7312L16.5327 17.7378L16.5294 17.7443L16.5257 17.7507L16.522 17.7568L16.5178 17.7629L16.5135 17.7691L16.5091 17.7747L16.5043 17.7804L16.4993 17.7859L16.4938 17.7912L16.4883 17.7962L16.4826 17.8012L16.4765 17.8058L16.4704 17.8104L16.4638 17.8146L16.4573 17.8187L15.3303 18.4693L15.3235 18.473L15.3165 18.4765L15.3095 18.4798L15.3025 18.4826L15.2953 18.485L15.288 18.4872L15.2808 18.4892L15.2736 18.4909L15.2664 18.4922L15.2592 18.4933L15.2517 18.494L15.2445 18.4944L15.2371 18.4947H15.2298L15.2224 18.4942L15.2152 18.4936L15.208 18.4927L15.201 18.4914L15.1938 18.4901L15.1868 18.4883L15.1798 18.4861L15.1728 18.4839L15.166 18.4813L15.1594 18.4787L15.1526 18.4756L15.1463 18.4721L15.1397 18.4686L15.1336 18.4649L15.1275 18.4607L15.1216 18.4564L15.1157 18.4518L15.11 18.447L15.1045 18.4419L15.0993 18.4367L15.0942 18.4312L15.0894 18.4253L15.0846 18.4194L15.0802 18.4133L15.0758 18.4067L15.0719 18.4002L12.0063 13.0904L8.94078 18.4002L8.93684 18.4067L8.93247 18.4133L8.92809 18.4194L8.92328 18.4253L8.91847 18.4312L8.91344 18.4367L8.90819 18.4419L8.90272 18.447L8.89703 18.4518L8.89113 18.4564L8.88522 18.4607L8.87909 18.4649L8.87297 18.4686L8.86641 18.4721L8.86006 18.4756L8.85328 18.4787L8.84672 18.4813L8.83994 18.4839L8.83294 18.4861L8.82594 18.4883L8.81894 18.4901L8.81172 18.4914L8.80472 18.4927L8.7975 18.4936L8.79028 18.4942L8.78284 18.4947H8.77563L8.76819 18.4944L8.76097 18.494L8.75353 18.4933L8.74631 18.4922L8.73909 18.4909L8.73188 18.4892L8.72466 18.4872L8.71744 18.485L8.71022 18.4826L8.70322 18.4798L8.69622 18.4765L8.68922 18.473L8.68244 18.4693L7.55544 17.8187L7.54888 17.8146L7.54231 17.8104L7.53619 17.8058L7.53006 17.8012L7.52438 17.7962L7.51891 17.7912L7.51344 17.7859L7.50841 17.7804L7.50359 17.7747L7.49922 17.7691L7.49484 17.7629L7.49069 17.7568L7.48697 17.7507L7.48325 17.7443L7.47997 17.7378L7.47691 17.7312L7.47406 17.7244L7.47166 17.7177L7.46925 17.7109L7.46728 17.7039L7.46553 17.6967L7.464 17.6897L7.46291 17.6824L7.46203 17.6752L7.46138 17.668L7.46094 17.6608V17.6533V17.6461L7.46159 17.6387L7.46225 17.6315L7.46334 17.624L7.46466 17.6168L7.46641 17.6096L7.46816 17.6024L7.47056 17.5952L7.47297 17.5882L7.47581 17.5809L7.47909 17.5739L7.48238 17.5672L7.48631 17.5602L11.3868 10.8043L11.3875 10.803L11.4015 10.7776L11.4122 10.7601L11.4354 10.7201L11.4393 10.7135L11.4437 10.7069L11.4481 10.7008L11.4529 10.6947L11.4577 10.689L11.4628 10.6835L11.4682 10.6783L11.4737 10.673L11.4789 10.6687L11.4848 10.6617L11.5039 10.6407L11.5236 10.6203L11.5439 10.6011L11.5651 10.5825L11.587 10.5647L11.6095 10.5479L11.6325 10.5319L11.6563 10.5168L11.6806 10.5028L11.7053 10.4899L11.7307 10.4777L11.7565 10.4667L11.783 10.4569L11.8099 10.4479L11.837 10.4401L11.8648 10.4335L11.8928 10.428L11.9213 10.4237L11.9501 10.4206L11.9792 10.4186L12.0085 10.418L12.0381 10.4186L12.0672 10.4206Z"
      fill="black" />
  </g>
  <path
    d="M12.0389 7.94574L12.0676 7.9488L12.096 7.95318L12.1243 7.95865L12.1518 7.96521L12.1792 7.97308L12.2061 7.98183L12.2323 7.9919L12.2581 8.00283L12.2835 8.01487L12.3084 8.02799L12.3327 8.04199L12.3563 8.05708L12.3795 8.07283L12.4021 8.08968L12.4237 8.1074L12.4449 8.12599L12.4655 8.14546L12.4852 8.1658L12.5042 8.1868L12.5224 8.20846L12.5274 8.21502L12.5316 8.21983L12.5364 8.22574L12.5408 8.23208L12.5425 8.23449L12.5565 8.25418L12.5725 8.27824L12.5873 8.30274L12.6016 8.3279L12.6147 8.35371L12.6265 8.3793L16.4982 15.0853L16.5021 15.0921L16.5054 15.0991L16.5087 15.1061L16.5115 15.1131L16.5139 15.1203L16.5163 15.1275L16.5181 15.1347L16.5198 15.142L16.5211 15.1492L16.5222 15.1566L16.5229 15.1638L16.5235 15.1713V15.1785V15.1857L16.5231 15.1931L16.5224 15.2004L16.5216 15.2076L16.5205 15.2148L16.5189 15.2218L16.5172 15.2288L16.5152 15.2358L16.5128 15.2428L16.5104 15.2496L16.5076 15.2564L16.5045 15.2629L16.5012 15.2693L16.4975 15.2758L16.4938 15.282L16.4896 15.2881L16.4853 15.294L16.4809 15.2999L16.4761 15.3056L16.471 15.3111L16.4656 15.3163L16.4601 15.3213L16.4544 15.3264L16.4483 15.331L16.4422 15.3356L16.4356 15.3397L16.429 15.3436L15.302 15.9944L15.2953 15.9981L15.2883 16.0016L15.2813 16.0047L15.2743 16.0076L15.267 16.0102L15.2598 16.0124L15.2526 16.0143L15.2454 16.0159L15.2382 16.0174L15.2309 16.0183L15.2235 16.0191L15.2163 16.0196L15.2088 16.0198L15.2016 16.0196L15.1942 16.0194L15.187 16.0187L15.1798 16.0178L15.1728 16.0165L15.1655 16.015L15.1585 16.0132L15.1515 16.0113L15.1445 16.0091L15.1378 16.0065L15.1312 16.0036L15.1244 16.0006L15.1181 15.9973L15.1115 15.9938L15.1054 15.9898L15.0993 15.9859L15.0933 15.9815L15.0874 15.9769L15.0818 15.9721L15.0763 15.9671L15.071 15.9618L15.066 15.9564L15.0612 15.9505L15.0564 15.9446L15.052 15.9382L15.0476 15.9319L15.0437 15.9251L11.9781 10.6156L8.91257 15.9251L8.90863 15.9319L8.90426 15.9382L8.89988 15.9446L8.89507 15.9505L8.89026 15.9564L8.88522 15.9618L8.87997 15.9671L8.87451 15.9721L8.86882 15.9769L8.86291 15.9815L8.85701 15.9859L8.85088 15.9898L8.84476 15.9938L8.83819 15.9973L8.83185 16.0006L8.82507 16.0036L8.81851 16.0065L8.81172 16.0091L8.80472 16.0113L8.79772 16.0132L8.79072 16.015L8.78351 16.0165L8.77651 16.0178L8.76929 16.0187L8.76207 16.0194L8.75463 16.0196L8.74741 16.0198L8.73997 16.0196L8.73276 16.0191L8.72532 16.0183L8.7181 16.0174L8.71088 16.0159L8.70366 16.0143L8.69644 16.0124L8.68922 16.0102L8.68201 16.0076L8.67501 16.0047L8.66801 16.0016L8.66101 15.9981L8.65422 15.9944L7.52722 15.3436L7.52066 15.3397L7.5141 15.3356L7.50797 15.331L7.50185 15.3264L7.49616 15.3213L7.49069 15.3163L7.48522 15.3111L7.48019 15.3056L7.47538 15.2999L7.47101 15.294L7.46663 15.2881L7.46247 15.282L7.45876 15.2758L7.45504 15.2693L7.45176 15.2629L7.44869 15.2564L7.44585 15.2496L7.44344 15.2428L7.44104 15.2358L7.43907 15.2288L7.43732 15.2218L7.43579 15.2148L7.43469 15.2076L7.43382 15.2004L7.43316 15.1931L7.43272 15.1857V15.1785V15.1713L7.43338 15.1638L7.43404 15.1566L7.43513 15.1492L7.43644 15.142L7.43819 15.1347L7.43994 15.1275L7.44235 15.1203L7.44476 15.1131L7.4476 15.1061L7.45088 15.0991L7.45416 15.0921L7.4581 15.0853L11.3586 8.32943L11.3593 8.3279L11.3733 8.30274L11.384 8.28524L11.4072 8.24521L11.4111 8.23843L11.4155 8.23208L11.4199 8.22574L11.4247 8.21983L11.4295 8.21415L11.4345 8.20846L11.44 8.20321L11.4455 8.19818L11.4507 8.1938L11.4566 8.1868L11.4757 8.1658L11.4953 8.14546L11.5157 8.12599L11.5369 8.1074L11.5588 8.08968L11.5813 8.07283L11.6043 8.05708L11.6281 8.04199L11.6524 8.02799L11.6771 8.01487L11.7025 8.00283L11.7283 7.9919L11.7548 7.98183L11.7817 7.97308L11.8088 7.96521L11.8366 7.95865L11.8646 7.95318L11.893 7.9488L11.9219 7.94574L11.951 7.94377L11.9803 7.94312L12.0098 7.94377L12.0389 7.94574Z"
    fill="#E4E4E4" />
  <path
    d="M12.0608 8.64569L12.0895 8.64875L12.1179 8.65313L12.1461 8.6586L12.1737 8.66516L12.201 8.67304L12.2279 8.68179L12.2542 8.69185L12.28 8.70279L12.3054 8.71482L12.3303 8.72794L12.3546 8.74194L12.3782 8.75704L12.4014 8.77279L12.4239 8.78963L12.4456 8.80735L12.4668 8.82594L12.4874 8.84541L12.5071 8.86575L12.5261 8.88675L12.5443 8.90841L12.5493 8.91497L12.5534 8.91979L12.5583 8.92569L12.5626 8.93203L12.5644 8.93444L12.5784 8.95413L12.5944 8.97819L12.6092 9.00269L12.6234 9.02785L12.6366 9.05366L12.6484 9.07925L16.52 15.7853L16.524 15.792L16.5273 15.799L16.5305 15.806L16.5334 15.813L16.5358 15.8203L16.5382 15.8275L16.5399 15.8347L16.5417 15.8419L16.543 15.8491L16.5441 15.8566L16.5448 15.8638L16.5454 15.8712V15.8784V15.8857L16.545 15.8931L16.5443 15.9003L16.5435 15.9075L16.5424 15.9148L16.5408 15.9218L16.5391 15.9288L16.5371 15.9358L16.5347 15.9428L16.5323 15.9495L16.5294 15.9563L16.5264 15.9629L16.5231 15.9692L16.5194 15.9758L16.5157 15.9819L16.5115 15.988L16.5071 15.9939L16.5028 15.9998L16.4979 16.0055L16.4929 16.011L16.4874 16.0163L16.482 16.0213L16.4763 16.0263L16.4702 16.0309L16.464 16.0355L16.4575 16.0397L16.4509 16.0436L15.3239 16.6944L15.3171 16.6981L15.3101 16.7016L15.3031 16.7047L15.2961 16.7075L15.2889 16.7101L15.2817 16.7123L15.2745 16.7143L15.2673 16.7158L15.26 16.7173L15.2528 16.7182L15.2454 16.7191L15.2382 16.7195L15.2307 16.7198L15.2235 16.7195L15.2161 16.7193L15.2089 16.7187L15.2016 16.7178L15.1946 16.7165L15.1874 16.7149L15.1804 16.7132L15.1734 16.7112L15.1664 16.709L15.1596 16.7064L15.1531 16.7036L15.1463 16.7005L15.1399 16.6972L15.1334 16.6937L15.1273 16.6898L15.1211 16.6858L15.1152 16.6815L15.1093 16.6769L15.1036 16.6721L15.0982 16.667L15.0929 16.6618L15.0879 16.6563L15.0831 16.6504L15.0783 16.6445L15.0739 16.6382L15.0695 16.6318L15.0656 16.625L12 11.3155L8.93445 16.625L8.93051 16.6318L8.92614 16.6382L8.92176 16.6445L8.91695 16.6504L8.91214 16.6563L8.90711 16.6618L8.90186 16.667L8.89639 16.6721L8.8907 16.6769L8.88479 16.6815L8.87889 16.6858L8.87276 16.6898L8.86664 16.6937L8.86007 16.6972L8.85373 16.7005L8.84695 16.7036L8.84039 16.7064L8.83361 16.709L8.82661 16.7112L8.81961 16.7132L8.81261 16.7149L8.80539 16.7165L8.79839 16.7178L8.79117 16.7187L8.78395 16.7193L8.77651 16.7195L8.76929 16.7198L8.76186 16.7195L8.75464 16.7191L8.7472 16.7182L8.73998 16.7173L8.73276 16.7158L8.72554 16.7143L8.71832 16.7123L8.71111 16.7101L8.70389 16.7075L8.69689 16.7047L8.68989 16.7016L8.68289 16.6981L8.67611 16.6944L7.54911 16.0436L7.54254 16.0397L7.53598 16.0355L7.52986 16.0309L7.52373 16.0263L7.51804 16.0213L7.51257 16.0163L7.50711 16.011L7.50207 16.0055L7.49726 15.9998L7.49289 15.9939L7.48851 15.988L7.48436 15.9819L7.48064 15.9758L7.47692 15.9692L7.47364 15.9629L7.47057 15.9563L7.46773 15.9495L7.46532 15.9428L7.46292 15.9358L7.46095 15.9288L7.4592 15.9218L7.45767 15.9148L7.45657 15.9075L7.4557 15.9003L7.45504 15.8931L7.45461 15.8857V15.8784V15.8712L7.45526 15.8638L7.45592 15.8566L7.45701 15.8491L7.45832 15.8419L7.46007 15.8347L7.46182 15.8275L7.46423 15.8203L7.46664 15.813L7.46948 15.806L7.47276 15.799L7.47604 15.792L7.47998 15.7853L11.3805 9.02938L11.3812 9.02785L11.3952 9.00269L11.4059 8.98519L11.4291 8.94516L11.433 8.93838L11.4374 8.93203L11.4418 8.92569L11.4466 8.91979L11.4514 8.9141L11.4564 8.90841L11.4619 8.90316L11.4674 8.89813L11.4726 8.89375L11.4785 8.88675L11.4975 8.86575L11.5172 8.84541L11.5376 8.82594L11.5588 8.80735L11.5807 8.78963L11.6032 8.77279L11.6262 8.75704L11.65 8.74194L11.6743 8.72794L11.699 8.71482L11.7244 8.70279L11.7502 8.69185L11.7767 8.68179L11.8036 8.67304L11.8307 8.66516L11.8585 8.6586L11.8865 8.65313L11.9149 8.64875L11.9438 8.64569L11.9729 8.64372L12.0022 8.64307L12.0317 8.64372L12.0608 8.64569Z"
    fill="#E4E4E4" />
  <path
    d="M12.0672 9.42059L12.0958 9.42366L12.1243 9.42803L12.1525 9.4335L12.18 9.44006L12.2074 9.44794L12.2343 9.45691L12.2605 9.46675L12.2863 9.47769L12.3117 9.48994L12.3367 9.50284L12.3609 9.51684L12.3846 9.53194L12.4078 9.54791L12.4303 9.56475L12.4519 9.58247L12.4732 9.60106L12.4937 9.62031L12.5134 9.64066L12.5324 9.66166L12.5506 9.68353L12.5556 9.68987L12.5598 9.69469L12.5646 9.70081L12.569 9.70694L12.5707 9.70956L12.5847 9.72925L12.6007 9.75309L12.6156 9.77759L12.6298 9.80297L12.6429 9.82878L12.6547 9.85416L16.5264 16.5602L16.5303 16.5672L16.5336 16.5739L16.5369 16.5809L16.5397 16.5882L16.5421 16.5952L16.5445 16.6024L16.5463 16.6096L16.548 16.6168L16.5493 16.624L16.5504 16.6315L16.5511 16.6387L16.5518 16.6461V16.6533V16.6608L16.5513 16.668L16.5507 16.6752L16.5498 16.6824L16.5487 16.6897L16.5472 16.6967L16.5454 16.7039L16.5434 16.7109L16.541 16.7177L16.5386 16.7244L16.5358 16.7312L16.5327 16.7378L16.5294 16.7443L16.5257 16.7507L16.522 16.7568L16.5178 16.7629L16.5135 16.7691L16.5091 16.7747L16.5043 16.7804L16.4993 16.7859L16.4938 16.7912L16.4883 16.7962L16.4826 16.8012L16.4765 16.8058L16.4704 16.8104L16.4638 16.8146L16.4573 16.8187L15.3303 17.4693L15.3235 17.473L15.3165 17.4765L15.3095 17.4798L15.3025 17.4826L15.2953 17.485L15.288 17.4872L15.2808 17.4892L15.2736 17.4909L15.2664 17.4922L15.2592 17.4933L15.2517 17.494L15.2445 17.4944L15.2371 17.4947H15.2298L15.2224 17.4942L15.2152 17.4936L15.208 17.4927L15.201 17.4914L15.1938 17.4901L15.1868 17.4883L15.1798 17.4861L15.1728 17.4839L15.166 17.4813L15.1594 17.4787L15.1526 17.4756L15.1463 17.4721L15.1397 17.4686L15.1336 17.4649L15.1275 17.4607L15.1216 17.4564L15.1157 17.4518L15.11 17.447L15.1045 17.4419L15.0993 17.4367L15.0942 17.4312L15.0894 17.4253L15.0846 17.4194L15.0802 17.4133L15.0758 17.4067L15.0719 17.4002L12.0063 12.0904L8.94078 17.4002L8.93684 17.4067L8.93247 17.4133L8.92809 17.4194L8.92328 17.4253L8.91847 17.4312L8.91344 17.4367L8.90819 17.4419L8.90272 17.447L8.89703 17.4518L8.89113 17.4564L8.88522 17.4607L8.87909 17.4649L8.87297 17.4686L8.86641 17.4721L8.86006 17.4756L8.85328 17.4787L8.84672 17.4813L8.83994 17.4839L8.83294 17.4861L8.82594 17.4883L8.81894 17.4901L8.81172 17.4914L8.80472 17.4927L8.7975 17.4936L8.79028 17.4942L8.78284 17.4947H8.77563L8.76819 17.4944L8.76097 17.494L8.75353 17.4933L8.74631 17.4922L8.73909 17.4909L8.73188 17.4892L8.72466 17.4872L8.71744 17.485L8.71022 17.4826L8.70322 17.4798L8.69622 17.4765L8.68922 17.473L8.68244 17.4693L7.55544 16.8187L7.54888 16.8146L7.54231 16.8104L7.53619 16.8058L7.53006 16.8012L7.52438 16.7962L7.51891 16.7912L7.51344 16.7859L7.50841 16.7804L7.50359 16.7747L7.49922 16.7691L7.49484 16.7629L7.49069 16.7568L7.48697 16.7507L7.48325 16.7443L7.47997 16.7378L7.47691 16.7312L7.47406 16.7244L7.47166 16.7177L7.46925 16.7109L7.46728 16.7039L7.46553 16.6967L7.464 16.6897L7.46291 16.6824L7.46203 16.6752L7.46138 16.668L7.46094 16.6608V16.6533V16.6461L7.46159 16.6387L7.46225 16.6315L7.46334 16.624L7.46466 16.6168L7.46641 16.6096L7.46816 16.6024L7.47056 16.5952L7.47297 16.5882L7.47581 16.5809L7.47909 16.5739L7.48238 16.5672L7.48631 16.5602L11.3868 9.80428L11.3875 9.80297L11.4015 9.77759L11.4122 9.76009L11.4354 9.72006L11.4393 9.7135L11.4437 9.70694L11.4481 9.70081L11.4529 9.69469L11.4577 9.689L11.4628 9.68353L11.4682 9.67828L11.4737 9.67303L11.4789 9.66866L11.4848 9.66166L11.5039 9.64066L11.5236 9.62031L11.5439 9.60106L11.5651 9.58247L11.587 9.56475L11.6095 9.54791L11.6325 9.53194L11.6563 9.51684L11.6806 9.50284L11.7053 9.48994L11.7307 9.47769L11.7565 9.46675L11.783 9.45691L11.8099 9.44794L11.837 9.44006L11.8648 9.4335L11.8928 9.42803L11.9213 9.42366L11.9501 9.42059L11.9792 9.41862L12.0085 9.41797L12.0381 9.41862L12.0672 9.42059Z"
    fill="#E4E4E4" />
</svg>
  