<svg width="24" height="24" viewBox="0 0 24 24" fill="none" xmlns="http://www.w3.org/2000/svg">
  <path opacity="0.2"
    d="M5 2.5C4.446 2.5 4 2.946 4 3.5V21.5C4 22.054 4.446 22.5 5 22.5H19C19.554 22.5 20 22.054 20 21.5V8.5L14.5 8L14 2.5H5Z"
    fill="black" />
  <path
    d="M5 2C4.446 2 4 2.446 4 3V21C4 21.554 4.446 22 5 22H19C19.554 22 20 21.554 20 21V8L14.5 7.5L14 2H5Z"
    fill="#414141" />
  <path opacity="0.1" d="M5 2C4.446 2 4 2.446 4 3V3.5C4 2.946 4.446 2.5 5 2.5H14V2H5Z" fill="white" />
  <path opacity="0.2" d="M14 2.5V7.5C14 8.0525 14.448 8.5 15 8.5H20L14 2.5Z" fill="black" />
  <path d="M14 2V7C14 7.5525 14.448 8 15 8H20L14 2Z" fill="#555555" />
  <path opacity="0.2"
    d="M17.7203 16.707H12.7203C12.4442 16.707 12.2203 16.9309 12.2203 17.207V18.207C12.2203 18.4832 12.4442 18.707 12.7203 18.707H17.7203C17.9965 18.707 18.2203 18.4832 18.2203 18.207V17.207C18.2203 16.9309 17.9965 16.707 17.7203 16.707Z"
    fill="black" />
  <path
    d="M17.7203 16.207H12.7203C12.4442 16.207 12.2203 16.4309 12.2203 16.707V17.707C12.2203 17.9832 12.4442 18.207 12.7203 18.207H17.7203C17.9965 18.207 18.2203 17.9832 18.2203 17.707V16.707C18.2203 16.4309 17.9965 16.207 17.7203 16.207Z"
    fill="#5FB7FF" />
  <path opacity="0.2"
    d="M10.0791 13.6599L6.3707 17.1639C6.16597 17.3573 6.16597 17.671 6.3707 17.8644L7.11282 18.5656C7.31755 18.7591 7.64948 18.7591 7.85421 18.5656L11.5626 15.0616C11.7674 14.8682 11.7674 14.5546 11.5626 14.3611L10.8205 13.6599C10.6158 13.4665 10.2839 13.4665 10.0791 13.6599Z"
    fill="black" />
  <path
    d="M10.0864 13.1584L6.37796 16.6624C6.17323 16.8559 6.17323 17.1695 6.37796 17.363L7.12008 18.0642C7.32481 18.2576 7.65675 18.2576 7.86148 18.0642L11.5699 14.5602C11.7746 14.3667 11.7746 14.0531 11.5699 13.8597L10.8278 13.1584C10.6231 12.965 10.2911 12.965 10.0864 13.1584Z"
    fill="#006FD8" />
  <path opacity="0.2"
    d="M10.0864 15.7576L6.37796 12.2536C6.17323 12.0601 6.17323 11.7465 6.37796 11.5531L7.12008 10.8518C7.32481 10.6584 7.65675 10.6584 7.86148 10.8518L11.5699 14.3558C11.7746 14.5493 11.7746 14.8629 11.5699 15.0564L10.8278 15.7576C10.6231 15.951 10.2911 15.951 10.0864 15.7576Z"
    fill="black" />
  <path
    d="M10.0791 15.2561L6.3707 11.7521C6.16597 11.5587 6.16597 11.245 6.3707 11.0516L7.11282 10.3504C7.31755 10.1569 7.64948 10.1569 7.85421 10.3504L11.5626 13.8544C11.7674 14.0478 11.7674 14.3615 11.5626 14.5549L10.8205 15.2561C10.6158 15.4496 10.2839 15.4496 10.0791 15.2561Z"
    fill="#5FB7FF" />
</svg>
  