<svg width="24" height="24" viewBox="0 0 24 24" fill="none" xmlns="http://www.w3.org/2000/svg">
  <path opacity="0.2"
    d="M5 2.5C4.446 2.5 4 2.946 4 3.5V21.5C4 22.054 4.446 22.5 5 22.5H19C19.554 22.5 20 22.054 20 21.5V8.5L14 2.5H5Z"
    fill="black" />
  <path
    d="M5 2C4.446 2 4 2.446 4 3V21C4 21.554 4.446 22 5 22H19C19.554 22 20 21.554 20 21V8L14 2H5Z"
    fill="#E4E4E4" />
  <path opacity="0.2"
    d="M12.4827 19.0001H10.6896V17.207H12.4827V19.0001ZM14.3386 12.0519L13.5317 12.8768C12.8862 13.5312 12.4828 14.0692 12.4828 15.414H10.6897V14.9657C10.6897 13.9795 11.0931 13.083 11.7386 12.4285L12.8503 11.2988C13.1821 10.9761 13.3793 10.5278 13.3793 10.0347C13.3793 9.04848 12.5724 8.24159 11.5862 8.24159C10.6 8.24159 9.7931 9.04847 9.7931 10.0347H8C8 8.05331 9.60483 6.44849 11.5862 6.44849C13.5676 6.44849 15.1724 8.05331 15.1724 10.0347C15.1724 10.8236 14.8496 11.5409 14.3386 12.0519Z"
    fill="black" />
  <path
    d="M12.4827 18.5516H10.6896V16.7585H12.4827V18.5516ZM14.3386 11.6034L13.5317 12.4283C12.8862 13.0827 12.4828 13.6207 12.4828 14.9655H10.6897V14.5172C10.6897 13.531 11.0931 12.6345 11.7386 11.98L12.8503 10.8503C13.1821 10.5276 13.3793 10.0793 13.3793 9.5862C13.3793 8.6 12.5724 7.7931 11.5862 7.7931C10.6 7.7931 9.7931 8.59999 9.7931 9.5862H8C8 7.60482 9.60483 6 11.5862 6C13.5676 6 15.1724 7.60482 15.1724 9.5862C15.1724 10.3752 14.8496 11.0924 14.3386 11.6034Z"
    fill="#FF4B4B" />
  <path opacity="0.2" d="M20 8.5L14 2.5V7.5C14 8.054 14.446 8.5 15 8.5H20Z" fill="black" />
  <path d="M20 8L14 2V7C14 7.554 14.446 8 15 8H20Z" fill="#FAFAFA" />
  <path opacity="0.2" d="M5 2C4.446 2 4 2.446 4 3V3.5C4 2.946 4.446 2.5 5 2.5H14V2H5Z" fill="white" />
</svg>
  