<svg width="100" height="100" viewBox="0 0 100 100" fill="none" xmlns="http://www.w3.org/2000/svg">
  <path
    d="M50.278 13.8984L50.4827 13.9203L50.6858 13.9516L50.8874 13.9906L51.0843 14.0375L51.2796 14.0938L51.4718 14.1563L51.6593 14.2281L51.8437 14.3063L52.0249 14.3922L52.203 14.4859L52.3765 14.5859L52.5452 14.6938L52.7108 14.8063L52.8718 14.9266L53.0265 15.0531L53.178 15.1859L53.3249 15.325L53.4655 15.4703L53.6015 15.6203L53.7312 15.775L53.7671 15.8219L53.7968 15.8563L53.8312 15.8984L53.8624 15.9438L53.8749 15.9609L53.9749 16.1016L54.089 16.2734L54.1952 16.4484L54.2968 16.6281L54.3905 16.8125L54.4749 16.9953L82.1296 64.8953L82.1577 64.9438L82.1812 64.9938L82.2046 65.0438L82.2249 65.0938L82.2421 65.1453L82.2593 65.1969L82.2718 65.2485L82.2843 65.3L82.2937 65.3516L82.3015 65.4047L82.3062 65.4563L82.3108 65.5094V65.561V65.6125L82.3077 65.6656L82.303 65.7172L82.2968 65.7688L82.289 65.8203L82.278 65.8703L82.2655 65.9203L82.2515 65.9703L82.2343 66.0203L82.2171 66.0688L82.1968 66.1172L82.1749 66.1641L82.1515 66.2094L82.1249 66.2563L82.0983 66.3L82.0686 66.3438L82.0374 66.3859L82.0062 66.4281L81.9718 66.4688L81.9358 66.5078L81.8968 66.5453L81.8577 66.5813L81.8171 66.6172L81.7733 66.65L81.7296 66.6828L81.6827 66.7125L81.6358 66.7406L73.5858 71.3891L73.5374 71.4156L73.4874 71.4406L73.4374 71.4625L73.3874 71.4828L73.3358 71.5016L73.2843 71.5172L73.2327 71.5313L73.1812 71.5422L73.1296 71.5531L73.078 71.5594L73.0249 71.5656L72.9733 71.5688L72.9202 71.5703L72.8687 71.5688L72.8155 71.5672L72.764 71.5625L72.7124 71.5563L72.6624 71.5469L72.6108 71.5359L72.5608 71.5234L72.5108 71.5094L72.4608 71.4938L72.4124 71.475L72.3655 71.4547L72.3171 71.4328L72.2718 71.4094L72.2249 71.3844L72.1812 71.3563L72.1374 71.3281L72.0952 71.2969L72.053 71.2641L72.0124 71.2297L71.9733 71.1938L71.9358 71.1563L71.8999 71.1172L71.8655 71.075L71.8312 71.0328L71.7999 70.9875L71.7687 70.9422L71.7405 70.8938L49.8437 32.9688L27.9468 70.8938L27.9187 70.9422L27.8874 70.9875L27.8562 71.0328L27.8218 71.075L27.7874 71.1172L27.7515 71.1563L27.714 71.1938L27.6749 71.2297L27.6343 71.2641L27.5921 71.2969L27.5499 71.3281L27.5062 71.3563L27.4624 71.3844L27.4155 71.4094L27.3702 71.4328L27.3218 71.4547L27.2749 71.475L27.2265 71.4938L27.1765 71.5094L27.1265 71.5234L27.0765 71.5359L27.0249 71.5469L26.9749 71.5563L26.9233 71.5625L26.8718 71.5672L26.8187 71.5688L26.7671 71.5703L26.714 71.5688L26.6624 71.5656L26.6093 71.5594L26.5577 71.5531L26.5062 71.5422L26.4546 71.5313L26.403 71.5172L26.3515 71.5016L26.2999 71.4828L26.2499 71.4625L26.1999 71.4406L26.1499 71.4156L26.1015 71.3891L18.0515 66.7406L18.0046 66.7125L17.9577 66.6828L17.914 66.65L17.8702 66.6172L17.8296 66.5813L17.7905 66.5453L17.7515 66.5078L17.7155 66.4688L17.6812 66.4281L17.6499 66.3859L17.6187 66.3438L17.589 66.3L17.5624 66.2563L17.5358 66.2094L17.5124 66.1641L17.4905 66.1172L17.4702 66.0688L17.453 66.0203L17.4358 65.9703L17.4218 65.9203L17.4093 65.8703L17.3983 65.8203L17.3905 65.7688L17.3843 65.7172L17.3796 65.6656L17.3765 65.6125V65.561V65.5094L17.3812 65.4563L17.3858 65.4047L17.3937 65.3516L17.403 65.3L17.4155 65.2485L17.428 65.1969L17.4452 65.1453L17.4624 65.0938L17.4827 65.0438L17.5062 64.9938L17.5296 64.9438L17.5577 64.8953L45.4187 16.6391L45.4233 16.6281L45.5233 16.4484L45.5999 16.3234L45.7655 16.0375L45.7937 15.9891L45.8249 15.9438L45.8562 15.8984L45.8905 15.8563L45.9249 15.8156L45.9608 15.775L45.9999 15.7375L46.039 15.7016L46.0765 15.6703L46.1187 15.6203L46.2546 15.4703L46.3952 15.325L46.5405 15.1859L46.6921 15.0531L46.8483 14.9266L47.0093 14.8063L47.1733 14.6938L47.3437 14.5859L47.5171 14.4859L47.6937 14.3922L47.8749 14.3063L48.0593 14.2281L48.2483 14.1563L48.4405 14.0938L48.6343 14.0375L48.8327 13.9906L49.0327 13.9516L49.2358 13.9203L49.4421 13.8984L49.6499 13.8844L49.8593 13.8797L50.0702 13.8844L50.278 13.8984Z"
    fill="#6D6D6D" />
  <path
    d="M50.278 13.8984L50.4827 13.9203L50.6858 13.9516L50.8874 13.9906L51.0843 14.0375L51.2796 14.0938L51.4718 14.1563L51.6593 14.2281L51.8437 14.3063L52.0249 14.3922L52.203 14.4859L52.3765 14.5859L52.5452 14.6938L52.7108 14.8063L52.8718 14.9266L53.0265 15.0531L53.178 15.1859L53.3249 15.325L53.4655 15.4703L53.6015 15.6203L53.7312 15.775L53.7671 15.8219L53.7968 15.8563L53.8312 15.8984L53.8624 15.9438L53.8749 15.9609L53.9749 16.1016L54.089 16.2734L54.1952 16.4484L54.2968 16.6281L54.3905 16.8125L54.4749 16.9953L82.1296 64.8953L82.1577 64.9438L82.1812 64.9938L82.2046 65.0438L82.2249 65.0938L82.2421 65.1453L82.2593 65.1969L82.2718 65.2485L82.2843 65.3L82.2937 65.3516L82.3015 65.4047L82.3062 65.4563L82.3108 65.5094V65.561V65.6125L82.3077 65.6656L82.303 65.7172L82.2968 65.7688L82.289 65.8203L82.278 65.8703L82.2655 65.9203L82.2515 65.9703L82.2343 66.0203L82.2171 66.0688L82.1968 66.1172L82.1749 66.1641L82.1515 66.2094L82.1249 66.2563L82.0983 66.3L82.0686 66.3438L82.0374 66.3859L82.0062 66.4281L81.9718 66.4688L81.9358 66.5078L81.8968 66.5453L81.8577 66.5813L81.8171 66.6172L81.7733 66.65L81.7296 66.6828L81.6827 66.7125L81.6358 66.7406L73.5858 71.3891L73.5374 71.4156L73.4874 71.4406L73.4374 71.4625L73.3874 71.4828L73.3358 71.5016L73.2843 71.5172L73.2327 71.5313L73.1812 71.5422L73.1296 71.5531L73.078 71.5594L73.0249 71.5656L72.9733 71.5688L72.9202 71.5703L72.8687 71.5688L72.8155 71.5672L72.764 71.5625L72.7124 71.5563L72.6624 71.5469L72.6108 71.5359L72.5608 71.5234L72.5108 71.5094L72.4608 71.4938L72.4124 71.475L72.3655 71.4547L72.3171 71.4328L72.2718 71.4094L72.2249 71.3844L72.1812 71.3563L72.1374 71.3281L72.0952 71.2969L72.053 71.2641L72.0124 71.2297L71.9733 71.1938L71.9358 71.1563L71.8999 71.1172L71.8655 71.075L71.8312 71.0328L71.7999 70.9875L71.7687 70.9422L71.7405 70.8938L49.8437 32.9688L27.9468 70.8938L27.9187 70.9422L27.8874 70.9875L27.8562 71.0328L27.8218 71.075L27.7874 71.1172L27.7515 71.1563L27.714 71.1938L27.6749 71.2297L27.6343 71.2641L27.5921 71.2969L27.5499 71.3281L27.5062 71.3563L27.4624 71.3844L27.4155 71.4094L27.3702 71.4328L27.3218 71.4547L27.2749 71.475L27.2265 71.4938L27.1765 71.5094L27.1265 71.5234L27.0765 71.5359L27.0249 71.5469L26.9749 71.5563L26.9233 71.5625L26.8718 71.5672L26.8187 71.5688L26.7671 71.5703L26.714 71.5688L26.6624 71.5656L26.6093 71.5594L26.5577 71.5531L26.5062 71.5422L26.4546 71.5313L26.403 71.5172L26.3515 71.5016L26.2999 71.4828L26.2499 71.4625L26.1999 71.4406L26.1499 71.4156L26.1015 71.3891L18.0515 66.7406L18.0046 66.7125L17.9577 66.6828L17.914 66.65L17.8702 66.6172L17.8296 66.5813L17.7905 66.5453L17.7515 66.5078L17.7155 66.4688L17.6812 66.4281L17.6499 66.3859L17.6187 66.3438L17.589 66.3L17.5624 66.2563L17.5358 66.2094L17.5124 66.1641L17.4905 66.1172L17.4702 66.0688L17.453 66.0203L17.4358 65.9703L17.4218 65.9203L17.4093 65.8703L17.3983 65.8203L17.3905 65.7688L17.3843 65.7172L17.3796 65.6656L17.3765 65.6125V65.561V65.5094L17.3812 65.4563L17.3858 65.4047L17.3937 65.3516L17.403 65.3L17.4155 65.2485L17.428 65.1969L17.4452 65.1453L17.4624 65.0938L17.4827 65.0438L17.5062 64.9938L17.5296 64.9438L17.5577 64.8953L45.4187 16.6391L45.4233 16.6281L45.5233 16.4484L45.5999 16.3234L45.7655 16.0375L45.7937 15.9891L45.8249 15.9438L45.8562 15.8984L45.8905 15.8563L45.9249 15.8156L45.9608 15.775L45.9999 15.7375L46.039 15.7016L46.0765 15.6703L46.1187 15.6203L46.2546 15.4703L46.3952 15.325L46.5405 15.1859L46.6921 15.0531L46.8483 14.9266L47.0093 14.8063L47.1733 14.6938L47.3437 14.5859L47.5171 14.4859L47.6937 14.3922L47.8749 14.3063L48.0593 14.2281L48.2483 14.1563L48.4405 14.0938L48.6343 14.0375L48.8327 13.9906L49.0327 13.9516L49.2358 13.9203L49.4421 13.8984L49.6499 13.8844L49.8593 13.8797L50.0702 13.8844L50.278 13.8984Z"
    fill="#414141" />
  <path
    d="M50.4343 18.8984L50.639 18.9203L50.8421 18.9516L51.0437 18.9906L51.2405 19.0375L51.4358 19.0938L51.628 19.1563L51.8155 19.2281L51.9999 19.3063L52.1812 19.3922L52.3593 19.4859L52.5327 19.5859L52.7015 19.6938L52.8671 19.8063L53.028 19.9266L53.1827 20.0531L53.3343 20.1859L53.4812 20.325L53.6218 20.4703L53.7577 20.6203L53.8874 20.775L53.9233 20.8219L53.953 20.8563L53.9874 20.8984L54.0187 20.9438L54.0312 20.9609L54.1312 21.1016L54.2452 21.2734L54.3515 21.4485L54.453 21.6281L54.5468 21.8125L54.6312 21.9953L82.2858 69.8953L82.314 69.9438L82.3374 69.9938L82.3608 70.0438L82.3811 70.0938L82.3983 70.1453L82.4155 70.1969L82.428 70.2485L82.4405 70.3L82.4499 70.3516L82.4577 70.4047L82.4624 70.4563L82.4671 70.5094V70.561V70.6125L82.464 70.6656L82.4593 70.7172L82.453 70.7688L82.4452 70.8203L82.4343 70.8703L82.4218 70.9203L82.4077 70.9703L82.3905 71.0203L82.3733 71.0688L82.353 71.1172L82.3312 71.1641L82.3077 71.2094L82.2812 71.2563L82.2546 71.3L82.2249 71.3438L82.1936 71.3859L82.1624 71.4281L82.128 71.4688L82.0921 71.5078L82.053 71.5453L82.014 71.5813L81.9733 71.6172L81.9296 71.65L81.8858 71.6828L81.839 71.7125L81.7921 71.7406L73.7421 76.3891L73.6937 76.4156L73.6437 76.4406L73.5937 76.4625L73.5437 76.4828L73.4921 76.5016L73.4405 76.5172L73.389 76.5313L73.3374 76.5422L73.2858 76.5531L73.2343 76.5594L73.1812 76.5656L73.1296 76.5688L73.0765 76.5703L73.0249 76.5688L72.9718 76.5672L72.9202 76.5625L72.8687 76.5563L72.8187 76.5469L72.7671 76.5359L72.7171 76.5234L72.6671 76.5094L72.6171 76.4938L72.5687 76.475L72.5218 76.4547L72.4733 76.4328L72.428 76.4094L72.3812 76.3844L72.3374 76.3563L72.2937 76.3281L72.2515 76.2969L72.2093 76.2641L72.1687 76.2297L72.1296 76.1938L72.0921 76.1563L72.0562 76.1172L72.0218 76.075L71.9874 76.0328L71.9562 75.9875L71.9249 75.9422L71.8968 75.8938L49.9999 37.9688L28.103 75.8938L28.0749 75.9422L28.0437 75.9875L28.0124 76.0328L27.978 76.075L27.9437 76.1172L27.9077 76.1563L27.8702 76.1938L27.8312 76.2297L27.7905 76.2641L27.7483 76.2969L27.7062 76.3281L27.6624 76.3563L27.6187 76.3844L27.5718 76.4094L27.5265 76.4328L27.478 76.4547L27.4312 76.475L27.3827 76.4938L27.3327 76.5094L27.2827 76.5234L27.2327 76.5359L27.1812 76.5469L27.1312 76.5563L27.0796 76.5625L27.028 76.5672L26.9749 76.5688L26.9233 76.5703L26.8702 76.5688L26.8187 76.5656L26.7655 76.5594L26.714 76.5531L26.6624 76.5422L26.6108 76.5313L26.5593 76.5172L26.5077 76.5016L26.4562 76.4828L26.4062 76.4625L26.3562 76.4406L26.3062 76.4156L26.2577 76.3891L18.2077 71.7406L18.1608 71.7125L18.114 71.6828L18.0702 71.65L18.0265 71.6172L17.9858 71.5813L17.9468 71.5453L17.9077 71.5078L17.8718 71.4688L17.8374 71.4281L17.8062 71.3859L17.7749 71.3438L17.7452 71.3L17.7187 71.2563L17.6921 71.2094L17.6687 71.1641L17.6468 71.1172L17.6265 71.0688L17.6093 71.0203L17.5921 70.9703L17.578 70.9203L17.5655 70.8703L17.5546 70.8203L17.5468 70.7688L17.5405 70.7172L17.5358 70.6656L17.5327 70.6125V70.561V70.5094L17.5374 70.4563L17.5421 70.4047L17.5499 70.3516L17.5593 70.3L17.5718 70.2485L17.5843 70.1969L17.6015 70.1453L17.6187 70.0938L17.639 70.0438L17.6624 69.9938L17.6858 69.9438L17.714 69.8953L45.5749 21.6391L45.5796 21.6281L45.6796 21.4485L45.7562 21.3234L45.9218 21.0375L45.9499 20.9891L45.9812 20.9438L46.0124 20.8984L46.0468 20.8563L46.0812 20.8156L46.1171 20.775L46.1562 20.7375L46.1952 20.7016L46.2327 20.6703L46.2749 20.6203L46.4108 20.4703L46.5515 20.325L46.6968 20.1859L46.8483 20.0531L47.0046 19.9266L47.1655 19.8063L47.3296 19.6938L47.4999 19.5859L47.6733 19.4859L47.8499 19.3922L48.0312 19.3063L48.2155 19.2281L48.4046 19.1563L48.5968 19.0938L48.7905 19.0375L48.989 18.9906L49.189 18.9516L49.3921 18.9203L49.5983 18.8984L49.8062 18.8844L50.0155 18.8797L50.2265 18.8844L50.4343 18.8984Z"
    fill="#6D6D6D" />
  <path
    d="M50.4343 18.8984L50.639 18.9203L50.8421 18.9516L51.0437 18.9906L51.2405 19.0375L51.4358 19.0938L51.628 19.1563L51.8155 19.2281L51.9999 19.3063L52.1812 19.3922L52.3593 19.4859L52.5327 19.5859L52.7015 19.6938L52.8671 19.8063L53.028 19.9266L53.1827 20.0531L53.3343 20.1859L53.4812 20.325L53.6218 20.4703L53.7577 20.6203L53.8874 20.775L53.9233 20.8219L53.953 20.8563L53.9874 20.8984L54.0187 20.9438L54.0312 20.9609L54.1312 21.1016L54.2452 21.2734L54.3515 21.4485L54.453 21.6281L54.5468 21.8125L54.6312 21.9953L82.2858 69.8953L82.314 69.9438L82.3374 69.9938L82.3608 70.0438L82.3811 70.0938L82.3983 70.1453L82.4155 70.1969L82.428 70.2485L82.4405 70.3L82.4499 70.3516L82.4577 70.4047L82.4624 70.4563L82.4671 70.5094V70.561V70.6125L82.464 70.6656L82.4593 70.7172L82.453 70.7688L82.4452 70.8203L82.4343 70.8703L82.4218 70.9203L82.4077 70.9703L82.3905 71.0203L82.3733 71.0688L82.353 71.1172L82.3312 71.1641L82.3077 71.2094L82.2812 71.2563L82.2546 71.3L82.2249 71.3438L82.1936 71.3859L82.1624 71.4281L82.128 71.4688L82.0921 71.5078L82.053 71.5453L82.014 71.5813L81.9733 71.6172L81.9296 71.65L81.8858 71.6828L81.839 71.7125L81.7921 71.7406L73.7421 76.3891L73.6937 76.4156L73.6437 76.4406L73.5937 76.4625L73.5437 76.4828L73.4921 76.5016L73.4405 76.5172L73.389 76.5313L73.3374 76.5422L73.2858 76.5531L73.2343 76.5594L73.1812 76.5656L73.1296 76.5688L73.0765 76.5703L73.0249 76.5688L72.9718 76.5672L72.9202 76.5625L72.8687 76.5563L72.8187 76.5469L72.7671 76.5359L72.7171 76.5234L72.6671 76.5094L72.6171 76.4938L72.5687 76.475L72.5218 76.4547L72.4733 76.4328L72.428 76.4094L72.3812 76.3844L72.3374 76.3563L72.2937 76.3281L72.2515 76.2969L72.2093 76.2641L72.1687 76.2297L72.1296 76.1938L72.0921 76.1563L72.0562 76.1172L72.0218 76.075L71.9874 76.0328L71.9562 75.9875L71.9249 75.9422L71.8968 75.8938L49.9999 37.9688L28.103 75.8938L28.0749 75.9422L28.0437 75.9875L28.0124 76.0328L27.978 76.075L27.9437 76.1172L27.9077 76.1563L27.8702 76.1938L27.8312 76.2297L27.7905 76.2641L27.7483 76.2969L27.7062 76.3281L27.6624 76.3563L27.6187 76.3844L27.5718 76.4094L27.5265 76.4328L27.478 76.4547L27.4312 76.475L27.3827 76.4938L27.3327 76.5094L27.2827 76.5234L27.2327 76.5359L27.1812 76.5469L27.1312 76.5563L27.0796 76.5625L27.028 76.5672L26.9749 76.5688L26.9233 76.5703L26.8702 76.5688L26.8187 76.5656L26.7655 76.5594L26.714 76.5531L26.6624 76.5422L26.6108 76.5313L26.5593 76.5172L26.5077 76.5016L26.4562 76.4828L26.4062 76.4625L26.3562 76.4406L26.3062 76.4156L26.2577 76.3891L18.2077 71.7406L18.1608 71.7125L18.114 71.6828L18.0702 71.65L18.0265 71.6172L17.9858 71.5813L17.9468 71.5453L17.9077 71.5078L17.8718 71.4688L17.8374 71.4281L17.8062 71.3859L17.7749 71.3438L17.7452 71.3L17.7187 71.2563L17.6921 71.2094L17.6687 71.1641L17.6468 71.1172L17.6265 71.0688L17.6093 71.0203L17.5921 70.9703L17.578 70.9203L17.5655 70.8703L17.5546 70.8203L17.5468 70.7688L17.5405 70.7172L17.5358 70.6656L17.5327 70.6125V70.561V70.5094L17.5374 70.4563L17.5421 70.4047L17.5499 70.3516L17.5593 70.3L17.5718 70.2485L17.5843 70.1969L17.6015 70.1453L17.6187 70.0938L17.639 70.0438L17.6624 69.9938L17.6858 69.9438L17.714 69.8953L45.5749 21.6391L45.5796 21.6281L45.6796 21.4485L45.7562 21.3234L45.9218 21.0375L45.9499 20.9891L45.9812 20.9438L46.0124 20.8984L46.0468 20.8563L46.0812 20.8156L46.1171 20.775L46.1562 20.7375L46.1952 20.7016L46.2327 20.6703L46.2749 20.6203L46.4108 20.4703L46.5515 20.325L46.6968 20.1859L46.8483 20.0531L47.0046 19.9266L47.1655 19.8063L47.3296 19.6938L47.4999 19.5859L47.6733 19.4859L47.8499 19.3922L48.0312 19.3063L48.2155 19.2281L48.4046 19.1563L48.5968 19.0938L48.7905 19.0375L48.989 18.9906L49.189 18.9516L49.3921 18.9203L49.5983 18.8984L49.8062 18.8844L50.0155 18.8797L50.2265 18.8844L50.4343 18.8984Z"
    fill="#636363" />
  <path
    d="M50.4343 24.5062L50.639 24.5281L50.8421 24.5594L51.0437 24.5984L51.2405 24.6453L51.4358 24.7015L51.628 24.7656L51.8155 24.8359L51.9999 24.914L52.1812 25.0015L52.3593 25.0937L52.5327 25.1937L52.7015 25.3015L52.8671 25.4156L53.028 25.5359L53.1827 25.6625L53.3343 25.7953L53.4812 25.9328L53.6218 26.0781L53.7577 26.2281L53.8874 26.3844L53.9233 26.4297L53.953 26.464L53.9874 26.5078L54.0187 26.5515L54.0312 26.5703L54.1312 26.7109L54.2452 26.8812L54.3515 27.0562L54.453 27.2375L54.5468 27.4219L54.6312 27.6031L82.2858 75.5031L82.314 75.5531L82.3374 75.6016L82.3608 75.6516L82.3811 75.7031L82.3983 75.7531L82.4155 75.8047L82.428 75.8562L82.4405 75.9078L82.4499 75.9594L82.4577 76.0125L82.4624 76.0641L82.4671 76.1172V76.1687V76.2219L82.464 76.2734L82.4593 76.325L82.453 76.3766L82.4452 76.4281L82.4343 76.4781L82.4218 76.5297L82.4077 76.5797L82.3905 76.6281L82.3733 76.6766L82.353 76.725L82.3312 76.7719L82.3077 76.8187L82.2812 76.8641L82.2546 76.9078L82.2249 76.9516L82.1936 76.9953L82.1624 77.0359L82.128 77.0766L82.0921 77.1156L82.053 77.1531L82.014 77.1891L81.9733 77.225L81.9296 77.2578L81.8858 77.2906L81.839 77.3203L81.7921 77.35L73.7421 81.9969L73.6937 82.0234L73.6437 82.0484L73.5937 82.0719L73.5437 82.0922L73.4921 82.1094L73.4405 82.125L73.389 82.1391L73.3374 82.1516L73.2858 82.1609L73.2343 82.1687L73.1812 82.1734L73.1296 82.1766L73.0765 82.1781H73.0249L72.9718 82.175L72.9202 82.1703L72.8687 82.1641L72.8187 82.1547L72.7671 82.1453L72.7171 82.1328L72.6671 82.1172L72.6171 82.1016L72.5687 82.0828L72.5218 82.0641L72.4733 82.0422L72.428 82.0172L72.3812 81.9922L72.3374 81.9656L72.2937 81.9359L72.2515 81.9047L72.2093 81.8719L72.1687 81.8375L72.1296 81.8016L72.0921 81.7641L72.0562 81.725L72.0218 81.6828L71.9874 81.6406L71.9562 81.5969L71.9249 81.55L71.8968 81.5031L49.9999 43.5766L28.103 81.5031L28.0749 81.55L28.0437 81.5969L28.0124 81.6406L27.978 81.6828L27.9437 81.725L27.9077 81.7641L27.8702 81.8016L27.8312 81.8375L27.7905 81.8719L27.7483 81.9047L27.7062 81.9359L27.6624 81.9656L27.6187 81.9922L27.5718 82.0172L27.5265 82.0422L27.478 82.0641L27.4312 82.0828L27.3827 82.1016L27.3327 82.1172L27.2827 82.1328L27.2327 82.1453L27.1812 82.1547L27.1312 82.1641L27.0796 82.1703L27.028 82.175L26.9749 82.1781H26.9233L26.8702 82.1766L26.8187 82.1734L26.7655 82.1687L26.714 82.1609L26.6624 82.1516L26.6108 82.1391L26.5593 82.125L26.5077 82.1094L26.4562 82.0922L26.4062 82.0719L26.3562 82.0484L26.3062 82.0234L26.2577 81.9969L18.2077 77.35L18.1608 77.3203L18.114 77.2906L18.0702 77.2578L18.0265 77.225L17.9858 77.1891L17.9468 77.1531L17.9077 77.1156L17.8718 77.0766L17.8374 77.0359L17.8062 76.9953L17.7749 76.9516L17.7452 76.9078L17.7187 76.8641L17.6921 76.8187L17.6687 76.7719L17.6468 76.725L17.6265 76.6766L17.6093 76.6281L17.5921 76.5797L17.578 76.5297L17.5655 76.4781L17.5546 76.4281L17.5468 76.3766L17.5405 76.325L17.5358 76.2734L17.5327 76.2219V76.1687V76.1172L17.5374 76.0641L17.5421 76.0125L17.5499 75.9594L17.5593 75.9078L17.5718 75.8562L17.5843 75.8047L17.6015 75.7531L17.6187 75.7031L17.639 75.6516L17.6624 75.6016L17.6858 75.5531L17.714 75.5031L45.5749 27.2469L45.5796 27.2375L45.6796 27.0562L45.7562 26.9312L45.9218 26.6453L45.9499 26.5984L45.9812 26.5515L46.0124 26.5078L46.0468 26.464L46.0812 26.4234L46.1171 26.3844L46.1562 26.3469L46.1952 26.3094L46.2327 26.2781L46.2749 26.2281L46.4108 26.0781L46.5515 25.9328L46.6968 25.7953L46.8483 25.6625L47.0046 25.5359L47.1655 25.4156L47.3296 25.3015L47.4999 25.1937L47.6733 25.0937L47.8499 25.0015L48.0312 24.914L48.2155 24.8359L48.4046 24.7656L48.5968 24.7015L48.7905 24.6453L48.989 24.5984L49.189 24.5594L49.3921 24.5281L49.5983 24.5062L49.8062 24.4922L50.0155 24.4875L50.2265 24.4922L50.4343 24.5062Z"
    fill="#6D6D6D" />
  <path
    d="M50.4343 24.5062L50.639 24.5281L50.8421 24.5594L51.0437 24.5984L51.2405 24.6453L51.4358 24.7015L51.628 24.7656L51.8155 24.8359L51.9999 24.914L52.1812 25.0015L52.3593 25.0937L52.5327 25.1937L52.7015 25.3015L52.8671 25.4156L53.028 25.5359L53.1827 25.6625L53.3343 25.7953L53.4812 25.9328L53.6218 26.0781L53.7577 26.2281L53.8874 26.3844L53.9233 26.4297L53.953 26.464L53.9874 26.5078L54.0187 26.5515L54.0312 26.5703L54.1312 26.7109L54.2452 26.8812L54.3515 27.0562L54.453 27.2375L54.5468 27.4219L54.6312 27.6031L82.2858 75.5031L82.314 75.5531L82.3374 75.6016L82.3608 75.6516L82.3811 75.7031L82.3983 75.7531L82.4155 75.8047L82.428 75.8562L82.4405 75.9078L82.4499 75.9594L82.4577 76.0125L82.4624 76.0641L82.4671 76.1172V76.1687V76.2219L82.464 76.2734L82.4593 76.325L82.453 76.3766L82.4452 76.4281L82.4343 76.4781L82.4218 76.5297L82.4077 76.5797L82.3905 76.6281L82.3733 76.6766L82.353 76.725L82.3312 76.7719L82.3077 76.8187L82.2812 76.8641L82.2546 76.9078L82.2249 76.9516L82.1936 76.9953L82.1624 77.0359L82.128 77.0766L82.0921 77.1156L82.053 77.1531L82.014 77.1891L81.9733 77.225L81.9296 77.2578L81.8858 77.2906L81.839 77.3203L81.7921 77.35L73.7421 81.9969L73.6937 82.0234L73.6437 82.0484L73.5937 82.0719L73.5437 82.0922L73.4921 82.1094L73.4405 82.125L73.389 82.1391L73.3374 82.1516L73.2858 82.1609L73.2343 82.1687L73.1812 82.1734L73.1296 82.1766L73.0765 82.1781H73.0249L72.9718 82.175L72.9202 82.1703L72.8687 82.1641L72.8187 82.1547L72.7671 82.1453L72.7171 82.1328L72.6671 82.1172L72.6171 82.1016L72.5687 82.0828L72.5218 82.0641L72.4733 82.0422L72.428 82.0172L72.3812 81.9922L72.3374 81.9656L72.2937 81.9359L72.2515 81.9047L72.2093 81.8719L72.1687 81.8375L72.1296 81.8016L72.0921 81.7641L72.0562 81.725L72.0218 81.6828L71.9874 81.6406L71.9562 81.5969L71.9249 81.55L71.8968 81.5031L49.9999 43.5766L28.103 81.5031L28.0749 81.55L28.0437 81.5969L28.0124 81.6406L27.978 81.6828L27.9437 81.725L27.9077 81.7641L27.8702 81.8016L27.8312 81.8375L27.7905 81.8719L27.7483 81.9047L27.7062 81.9359L27.6624 81.9656L27.6187 81.9922L27.5718 82.0172L27.5265 82.0422L27.478 82.0641L27.4312 82.0828L27.3827 82.1016L27.3327 82.1172L27.2827 82.1328L27.2327 82.1453L27.1812 82.1547L27.1312 82.1641L27.0796 82.1703L27.028 82.175L26.9749 82.1781H26.9233L26.8702 82.1766L26.8187 82.1734L26.7655 82.1687L26.714 82.1609L26.6624 82.1516L26.6108 82.1391L26.5593 82.125L26.5077 82.1094L26.4562 82.0922L26.4062 82.0719L26.3562 82.0484L26.3062 82.0234L26.2577 81.9969L18.2077 77.35L18.1608 77.3203L18.114 77.2906L18.0702 77.2578L18.0265 77.225L17.9858 77.1891L17.9468 77.1531L17.9077 77.1156L17.8718 77.0766L17.8374 77.0359L17.8062 76.9953L17.7749 76.9516L17.7452 76.9078L17.7187 76.8641L17.6921 76.8187L17.6687 76.7719L17.6468 76.725L17.6265 76.6766L17.6093 76.6281L17.5921 76.5797L17.578 76.5297L17.5655 76.4781L17.5546 76.4281L17.5468 76.3766L17.5405 76.325L17.5358 76.2734L17.5327 76.2219V76.1687V76.1172L17.5374 76.0641L17.5421 76.0125L17.5499 75.9594L17.5593 75.9078L17.5718 75.8562L17.5843 75.8047L17.6015 75.7531L17.6187 75.7031L17.639 75.6516L17.6624 75.6016L17.6858 75.5531L17.714 75.5031L45.5749 27.2469L45.5796 27.2375L45.6796 27.0562L45.7562 26.9312L45.9218 26.6453L45.9499 26.5984L45.9812 26.5515L46.0124 26.5078L46.0468 26.464L46.0812 26.4234L46.1171 26.3844L46.1562 26.3469L46.1952 26.3094L46.2327 26.2781L46.2749 26.2281L46.4108 26.0781L46.5515 25.9328L46.6968 25.7953L46.8483 25.6625L47.0046 25.5359L47.1655 25.4156L47.3296 25.3015L47.4999 25.1937L47.6733 25.0937L47.8499 25.0015L48.0312 24.914L48.2155 24.8359L48.4046 24.7656L48.5968 24.7015L48.7905 24.6453L48.989 24.5984L49.189 24.5594L49.3921 24.5281L49.5983 24.5062L49.8062 24.4922L50.0155 24.4875L50.2265 24.4922L50.4343 24.5062Z"
    fill="url(#paint0_radial_1325_27)" />
  <defs>
    <radialGradient id="paint0_radial_1325_27" cx="0" cy="0" r="1" gradientUnits="userSpaceOnUse"
      gradientTransform="translate(49.9999 29.3141) scale(59.2875 59.2875)">
      <stop stop-color="#008DFF" />
      <stop offset="1" stop-color="#00488C" />
    </radialGradient>
  </defs>
</svg>
  