<svg width="24" height="24" viewBox="0 0 24 24" fill="none" xmlns="http://www.w3.org/2000/svg">
  <path opacity="0.2"
    d="M21 9.5H3C2.44772 9.5 2 9.94772 2 10.5V20.5C2 21.0523 2.44772 21.5 3 21.5H21C21.5523 21.5 22 21.0523 22 20.5V10.5C22 9.94772 21.5523 9.5 21 9.5Z"
    fill="black" />
  <path
    d="M2 17C2 17.554 2.446 18 3 18H21C21.554 18 22 17.554 22 17V6C22 5.446 21.554 5 21 5H12C10.5 5 10 3 8.5 3H3C2.446 3 2 3.446 2 4"
    fill="#4877B1" />
  <path opacity="0.2"
    d="M21 8.5H3C2.44772 8.5 2 8.94772 2 9.5V19.5C2 20.0523 2.44772 20.5 3 20.5H21C21.5523 20.5 22 20.0523 22 19.5V9.5C22 8.94772 21.5523 8.5 21 8.5Z"
    fill="black" />
  <path
    d="M19 7H5C4.44772 7 4 7.44772 4 8V14C4 14.5523 4.44772 15 5 15H19C19.5523 15 20 14.5523 20 14V8C20 7.44772 19.5523 7 19 7Z"
    fill="#E4E4E4" />
  <path
    d="M21 9H3C2.44772 9 2 9.44772 2 10V20C2 20.5523 2.44772 21 3 21H21C21.5523 21 22 20.5523 22 20V10C22 9.44772 21.5523 9 21 9Z"
    fill="#5294E2" />
  <path opacity="0.1"
    d="M3 3C2.446 3 2 3.446 2 4V4.5C2 3.946 2.446 3.5 3 3.5H8.5C10 3.5 10.5 5.5 12 5.5H21C21.554 5.5 22 5.946 22 6.5V6C22 5.446 21.554 5 21 5H12C10.5 5 10 3 8.5 3H3Z"
    fill="white" />
  <path opacity="0.2"
    d="M17.7203 16.707H12.7203C12.4442 16.707 12.2203 16.9309 12.2203 17.207V18.207C12.2203 18.4832 12.4442 18.707 12.7203 18.707H17.7203C17.9965 18.707 18.2203 18.4832 18.2203 18.207V17.207C18.2203 16.9309 17.9965 16.707 17.7203 16.707Z"
    fill="black" />
  <path
    d="M17.7203 16.207H12.7203C12.4442 16.207 12.2203 16.4309 12.2203 16.707V17.707C12.2203 17.9832 12.4442 18.207 12.7203 18.207H17.7203C17.9965 18.207 18.2203 17.9832 18.2203 17.707V16.707C18.2203 16.4309 17.9965 16.207 17.7203 16.207Z"
    fill="#1D344F" />
  <path opacity="0.2"
    d="M10.0791 13.6599L6.3707 17.1639C6.16597 17.3573 6.16597 17.671 6.3707 17.8644L7.11282 18.5656C7.31755 18.7591 7.64948 18.7591 7.85421 18.5656L11.5626 15.0616C11.7674 14.8682 11.7674 14.5546 11.5626 14.3611L10.8205 13.6599C10.6158 13.4665 10.2839 13.4665 10.0791 13.6599Z"
    fill="black" />
  <path opacity="0.2"
    d="M9.70369 15.396L6.34318 12.2207C6.15766 12.0454 6.17323 11.7465 6.37796 11.5531L7.12008 10.8518C7.32481 10.6584 7.64118 10.6437 7.8267 10.819L11.1872 13.9942C11.3727 14.1695 11.3572 14.4685 11.1524 14.6619L10.4103 15.3631C10.2056 15.5566 9.88922 15.5713 9.70369 15.396Z"
    fill="black" />
  <path
    d="M10.0864 13.1584L6.37796 16.6624C6.17323 16.8559 6.17323 17.1695 6.37796 17.363L7.12008 18.0642C7.32481 18.2576 7.65675 18.2576 7.86148 18.0642L11.5699 14.5602C11.7746 14.3667 11.7746 14.0531 11.5699 13.8597L10.8278 13.1584C10.6231 12.965 10.2911 12.965 10.0864 13.1584Z"
    fill="#1D344F" />
  <path
    d="M10.0791 15.2561L6.3707 11.7521C6.16597 11.5587 6.16597 11.245 6.3707 11.0516L7.11282 10.3504C7.31755 10.1569 7.64948 10.1569 7.85421 10.3504L11.5626 13.8544C11.7674 14.0478 11.7674 14.3615 11.5626 14.5549L10.8205 15.2561C10.6158 15.4496 10.2839 15.4496 10.0791 15.2561Z"
    fill="#1D344F" />
</svg>
  