<svg width="24" height="24" viewBox="0 0 24 24" fill="none" xmlns="http://www.w3.org/2000/svg">
  <path opacity="0.2"
    d="M21 9.5H3C2.44772 9.5 2 9.94772 2 10.5V20.5C2 21.0523 2.44772 21.5 3 21.5H21C21.5523 21.5 22 21.0523 22 20.5V10.5C22 9.94772 21.5523 9.5 21 9.5Z"
    fill="black" />
  <path
    d="M2 17C2 17.554 2.446 18 3 18H21C21.554 18 22 17.554 22 17V6C22 5.446 21.554 5 21 5H12C10.5 5 10 3 8.5 3H3C2.446 3 2 3.446 2 4"
    fill="#4877B1" />
  <path opacity="0.2"
    d="M21 8.5H3C2.44772 8.5 2 8.94772 2 9.5V19.5C2 20.0523 2.44772 20.5 3 20.5H21C21.5523 20.5 22 20.0523 22 19.5V9.5C22 8.94772 21.5523 8.5 21 8.5Z"
    fill="black" />
  <path
    d="M19 7H5C4.44772 7 4 7.44772 4 8V14C4 14.5523 4.44772 15 5 15H19C19.5523 15 20 14.5523 20 14V8C20 7.44772 19.5523 7 19 7Z"
    fill="#E4E4E4" />
  <path
    d="M21 9H3C2.44772 9 2 9.44772 2 10V20C2 20.5523 2.44772 21 3 21H21C21.5523 21 22 20.5523 22 20V10C22 9.44772 21.5523 9 21 9Z"
    fill="#5294E2" />
  <path opacity="0.1"
    d="M3 3C2.446 3 2 3.446 2 4V4.5C2 3.946 2.446 3.5 3 3.5H8.5C10 3.5 10.5 5.5 12 5.5H21C21.554 5.5 22 5.946 22 6.5V6C22 5.446 21.554 5 21 5H12C10.5 5 10 3 8.5 3H3Z"
    fill="white" />
  <g clip-path="url(#clip0_1898_206)">
    <path opacity="0.2"
      d="M17.4289 17.1201H6.57113C6.2557 17.1201 6 17.3873 6 17.717V17.9632C6 18.2929 6.2557 18.5601 6.57113 18.5601H17.4289C17.7443 18.5601 18 18.2929 18 17.9632V17.717C18 17.3873 17.7443 17.1201 17.4289 17.1201Z"
      fill="black" />
    <path
      d="M17.4289 16.76H6.57113C6.2557 16.76 6 17.0272 6 17.3569V17.6031C6 17.9328 6.2557 18.2 6.57113 18.2H17.4289C17.7443 18.2 18 17.9328 18 17.6031V17.3569C18 17.0272 17.7443 16.76 17.4289 16.76Z"
      fill="#1D344F" />
    <path opacity="0.1" fill-rule="evenodd" clip-rule="evenodd"
      d="M16.5 17.8399C16.5 19.0323 15.492 19.9999 14.25 19.9999C13.008 19.9999 12 19.0323 12 17.8399C12 16.6476 13.008 15.6799 14.25 15.6799C15.492 15.6799 16.5 16.6476 16.5 17.8399Z"
      fill="black" />
    <path fill-rule="evenodd" clip-rule="evenodd"
      d="M16.5 17.4801C16.5 18.6724 15.492 19.6401 14.25 19.6401C13.008 19.6401 12 18.6724 12 17.4801C12 16.2877 13.008 15.3201 14.25 15.3201C15.492 15.3201 16.5 16.2877 16.5 17.4801Z"
      fill="#1D344F" />
    <path opacity="0.2"
      d="M6.75 12.8001C7.16421 12.8001 7.5 12.4778 7.5 12.0801C7.5 11.6825 7.16421 11.3601 6.75 11.3601C6.33579 11.3601 6 11.6825 6 12.0801C6 12.4778 6.33579 12.8001 6.75 12.8001Z"
      fill="black" />
    <path
      d="M6.75 12.44C7.16421 12.44 7.5 12.1176 7.5 11.72C7.5 11.3224 7.16421 11 6.75 11C6.33579 11 6 11.3224 6 11.72C6 12.1176 6.33579 12.44 6.75 12.44Z"
      fill="#1D344F" />
    <path opacity="0.1"
      d="M10.2641 13.8799H9.23587C9.1056 13.8799 9 13.9906 9 14.1272V15.0726C9 15.2091 9.1056 15.3199 9.23587 15.3199H10.2641C10.3944 15.3199 10.5 15.2091 10.5 15.0726V14.1272C10.5 13.9906 10.3944 13.8799 10.2641 13.8799Z"
      fill="black" />
    <path
      d="M10.2641 13.52H9.23587C9.1056 13.52 9 13.6307 9 13.7673V14.7127C9 14.8493 9.1056 14.96 9.23587 14.96H10.2641C10.3944 14.96 10.5 14.8493 10.5 14.7127V13.7673C10.5 13.6307 10.3944 13.52 10.2641 13.52Z"
      fill="#1D344F" />
    <path opacity="0.1"
      d="M6.75 15.3199C7.16421 15.3199 7.5 14.9975 7.5 14.5999C7.5 14.2022 7.16421 13.8799 6.75 13.8799C6.33579 13.8799 6 14.2022 6 14.5999C6 14.9975 6.33579 15.3199 6.75 15.3199Z"
      fill="black" />
    <path
      d="M6.75 14.96C7.16421 14.96 7.5 14.6377 7.5 14.24C7.5 13.8424 7.16421 13.52 6.75 13.52C6.33579 13.52 6 13.8424 6 14.24C6 14.6377 6.33579 14.96 6.75 14.96Z"
      fill="#1D344F" />
    <path opacity="0.2"
      d="M10.2641 11.3601H9.23587C9.1056 11.3601 9 11.4708 9 11.6074V12.5528C9 12.6894 9.1056 12.8001 9.23587 12.8001H10.2641C10.3944 12.8001 10.5 12.6894 10.5 12.5528V11.6074C10.5 11.4708 10.3944 11.3601 10.2641 11.3601Z"
      fill="black" />
    <path
      d="M10.2641 11H9.23587C9.1056 11 9 11.1107 9 11.2473V12.1927C9 12.3293 9.1056 12.44 9.23587 12.44H10.2641C10.3944 12.44 10.5 12.3293 10.5 12.1927V11.2473C10.5 11.1107 10.3944 11 10.2641 11Z"
      fill="#1D344F" />
  </g>
  <defs>
    <clipPath id="clip0_1898_206">
      <rect width="12" height="9" fill="white" transform="translate(6 11)" />
    </clipPath>
  </defs>
</svg>
  